<svg width="411" height="444" viewBox="0 0 411 444" fill="none" xmlns="http://www.w3.org/2000/svg">
<g filter="url(#filter0_d_44_161)">
<rect x="52" y="12" width="306.271" height="339.309" rx="8" fill="white"/>
</g>
<path fill-rule="evenodd" clip-rule="evenodd" d="M330.596 303.984L93.9725 303.984L93.9725 303.091L330.596 303.091L330.596 303.984Z" fill="#EEF0F2"/>
<path fill-rule="evenodd" clip-rule="evenodd" d="M330.596 246.837L93.9725 246.837L93.9725 245.944L330.596 245.944L330.596 246.837Z" fill="#EEF0F2"/>
<path fill-rule="evenodd" clip-rule="evenodd" d="M330.592 190.583L93.9686 190.583L93.9686 189.69L330.592 189.69L330.592 190.583Z" fill="#EEF0F2"/>
<path fill-rule="evenodd" clip-rule="evenodd" d="M330.592 134.329L93.9686 134.329L93.9686 133.436L330.592 133.436L330.592 134.329Z" fill="#EEF0F2"/>
<path d="M73.2386 303.268V302.472L75.6996 299.922C75.9624 299.645 76.179 299.403 76.3494 299.194C76.5223 298.984 76.6513 298.784 76.7365 298.594C76.8217 298.405 76.8643 298.204 76.8643 297.991C76.8643 297.749 76.8075 297.541 76.6939 297.366C76.5803 297.188 76.4252 297.052 76.2287 296.957C76.0322 296.86 75.8108 296.812 75.5646 296.812C75.3042 296.812 75.0769 296.865 74.8828 296.971C74.6887 297.078 74.5395 297.228 74.4354 297.422C74.3312 297.617 74.2791 297.844 74.2791 298.104H73.2315C73.2315 297.662 73.3333 297.274 73.5369 296.943C73.7405 296.612 74.0199 296.355 74.375 296.172C74.7301 295.988 75.1338 295.895 75.5859 295.895C76.0429 295.895 76.4453 295.987 76.7933 296.169C77.1437 296.349 77.4171 296.595 77.6136 296.907C77.8101 297.218 77.9084 297.568 77.9084 297.959C77.9084 298.229 77.8575 298.492 77.7557 298.751C77.6562 299.009 77.4822 299.296 77.2337 299.613C76.9851 299.928 76.6394 300.311 76.1967 300.76L74.7514 302.273V302.327H78.0256V303.268H73.2386ZM80.3622 301.417L80.3551 300.121H80.5398L82.7131 297.813H83.9844L81.5057 300.441H81.3388L80.3622 301.417ZM79.3857 303.268V295.995H80.4474V303.268H79.3857ZM82.8303 303.268L80.8771 300.675L81.6087 299.933L84.1335 303.268H82.8303Z" fill="#333333"/>
<path d="M72.1953 244.701V243.813L75.3381 238.848H76.0376V240.155H75.5937L73.3459 243.713V243.77H77.6534V244.701H72.1953ZM75.6435 246.121V244.431L75.6506 244.026V238.848H76.6911V246.121H75.6435ZM79.8817 244.271L79.8746 242.975H80.0593L82.2326 240.667H83.5039L81.0252 243.294H80.8583L79.8817 244.271ZM78.9052 246.121V238.848H79.967V246.121H78.9052ZM82.3498 246.121L80.3967 243.529L81.1282 242.787L83.6531 246.121H82.3498Z" fill="#333333"/>
<path d="M74.8832 189.966C74.5588 189.961 74.2392 189.902 73.9244 189.788C73.6119 189.675 73.3278 189.485 73.0721 189.22C72.8164 188.955 72.6116 188.599 72.4577 188.151C72.3062 187.704 72.2305 187.145 72.2305 186.475C72.2305 185.841 72.2932 185.277 72.4187 184.785C72.5465 184.292 72.73 183.877 72.9691 183.538C73.2082 183.197 73.497 182.938 73.8356 182.761C74.1741 182.583 74.5541 182.494 74.9755 182.494C75.4087 182.494 75.7934 182.58 76.1296 182.75C76.4658 182.92 76.738 183.156 76.9464 183.457C77.1571 183.757 77.2908 184.099 77.3477 184.483H76.2646C76.1912 184.18 76.0456 183.933 75.8278 183.741C75.61 183.549 75.3259 183.453 74.9755 183.453C74.4428 183.453 74.0273 183.685 73.729 184.149C73.4331 184.613 73.284 185.258 73.2816 186.084H73.3349C73.4603 185.879 73.6142 185.703 73.7965 185.559C73.9812 185.412 74.1871 185.3 74.4144 185.222C74.6441 185.141 74.8855 185.101 75.1388 185.101C75.5603 185.101 75.9414 185.204 76.2823 185.41C76.6256 185.613 76.899 185.895 77.1026 186.255C77.3062 186.615 77.408 187.027 77.408 187.491C77.408 187.955 77.3027 188.375 77.092 188.751C76.8836 189.128 76.5901 189.426 76.2113 189.646C75.8325 189.864 75.3898 189.971 74.8832 189.966ZM74.8796 189.043C75.159 189.043 75.4087 188.974 75.6289 188.837C75.8491 188.699 76.0231 188.515 76.1509 188.283C76.2788 188.051 76.3427 187.791 76.3427 187.505C76.3427 187.226 76.2799 186.971 76.1545 186.741C76.0314 186.512 75.8609 186.33 75.6431 186.195C75.4277 186.06 75.1815 185.992 74.9045 185.992C74.6938 185.992 74.4985 186.032 74.3185 186.113C74.141 186.193 73.9847 186.305 73.8498 186.447C73.7148 186.589 73.6083 186.752 73.5302 186.937C73.4544 187.119 73.4165 187.312 73.4165 187.516C73.4165 187.788 73.4793 188.04 73.6048 188.272C73.7326 188.504 73.9066 188.691 74.1268 188.833C74.3493 188.973 74.6003 189.043 74.8796 189.043ZM79.6923 188.016L79.6852 186.72H79.8699L82.0431 184.412H83.3145L80.8358 187.04H80.6689L79.6923 188.016ZM78.7157 189.866V182.594H79.7775V189.866H78.7157ZM82.1603 189.866L80.2072 187.274L80.9387 186.532L83.4636 189.866H82.1603Z" fill="#333333"/>
<path d="M74.8015 133.713C74.2925 133.713 73.8427 133.625 73.4521 133.45C73.0638 133.275 72.7596 133.033 72.5394 132.725C72.3192 132.418 72.2103 132.067 72.2127 131.674C72.2103 131.367 72.2731 131.084 72.4009 130.826C72.5311 130.565 72.7075 130.349 72.93 130.176C73.1526 130.001 73.4012 129.889 73.6758 129.842V129.799C73.3136 129.712 73.0236 129.518 72.8058 129.217C72.5879 128.916 72.4802 128.571 72.4826 128.18C72.4802 127.808 72.5785 127.477 72.7773 127.186C72.9786 126.892 73.2544 126.661 73.6048 126.493C73.9551 126.325 74.354 126.241 74.8015 126.241C75.2442 126.241 75.6396 126.326 75.9876 126.497C76.3379 126.665 76.6138 126.896 76.815 127.189C77.0162 127.48 77.118 127.811 77.1204 128.18C77.118 128.571 77.0067 128.916 76.7866 129.217C76.5664 129.518 76.2799 129.712 75.9272 129.799V129.842C76.1995 129.889 76.4445 130.001 76.6623 130.176C76.8825 130.349 77.0576 130.565 77.1879 130.826C77.3204 131.084 77.3879 131.367 77.3903 131.674C77.3879 132.067 77.2766 132.418 77.0565 132.725C76.8363 133.033 76.5309 133.275 76.1403 133.45C75.752 133.625 75.3058 133.713 74.8015 133.713ZM74.8015 132.814C75.1022 132.814 75.3626 132.765 75.5827 132.665C75.8029 132.563 75.9734 132.422 76.0941 132.243C76.2148 132.06 76.2764 131.847 76.2788 131.603C76.2764 131.35 76.2101 131.126 76.0799 130.932C75.9521 130.738 75.7781 130.585 75.5579 130.474C75.3377 130.363 75.0856 130.307 74.8015 130.307C74.515 130.307 74.2605 130.363 74.038 130.474C73.8155 130.585 73.6403 130.738 73.5124 130.932C73.3846 131.126 73.3219 131.35 73.3242 131.603C73.3219 131.847 73.3799 132.06 73.4982 132.243C73.619 132.422 73.7906 132.563 74.0131 132.665C74.2357 132.765 74.4985 132.814 74.8015 132.814ZM74.8015 129.43C75.043 129.43 75.2572 129.382 75.4442 129.284C75.6313 129.187 75.7781 129.052 75.8846 128.88C75.9935 128.707 76.0491 128.504 76.0515 128.272C76.0491 128.045 75.9947 127.846 75.8881 127.676C75.784 127.505 75.6384 127.374 75.4513 127.282C75.2643 127.187 75.0477 127.14 74.8015 127.14C74.5505 127.14 74.3304 127.187 74.141 127.282C73.954 127.374 73.8084 127.505 73.7042 127.676C73.6 127.846 73.5491 128.045 73.5515 128.272C73.5491 128.504 73.6012 128.707 73.7077 128.88C73.8143 129.052 73.9611 129.187 74.1481 129.284C74.3375 129.382 74.5553 129.43 74.8015 129.43ZM79.6532 131.763L79.6461 130.467H79.8308L82.0041 128.159H83.2754L80.7967 130.787H80.6298L79.6532 131.763ZM78.6767 133.613V126.341H79.7385V133.613H78.6767ZM82.1213 133.613L80.1681 131.021L80.8997 130.279L83.4245 133.613H82.1213Z" fill="#333333"/>
<path d="M84.139 81.4056V98.2899H81.5833V83.9613H81.4844L77.4447 86.5995V84.1592L81.6575 81.4056H84.139ZM88.3519 94.9921V92.9311L95.648 81.4056H97.2722V84.4395H96.2416L91.023 92.7002V92.8322H101.023V94.9921H88.3519ZM96.357 98.2899V94.3656L96.3735 93.4257V81.4056H98.7891V98.2899H96.357ZM104.919 98.4465C104.468 98.4465 104.081 98.2871 103.756 97.9683C103.432 97.6441 103.27 97.2538 103.27 96.7976C103.27 96.347 103.432 95.9622 103.756 95.6434C104.081 95.3192 104.468 95.157 104.919 95.157C105.369 95.157 105.757 95.3192 106.081 95.6434C106.405 95.9622 106.568 96.347 106.568 96.7976C106.568 97.0999 106.491 97.3775 106.337 97.6303C106.188 97.8776 105.99 98.0755 105.743 98.2239C105.496 98.3723 105.221 98.4465 104.919 98.4465ZM115.137 98.5207C114.104 98.5207 113.175 98.3228 112.351 97.9271C111.532 97.5259 110.878 96.9763 110.389 96.2783C109.9 95.5802 109.639 94.7833 109.606 93.8874H112.079C112.139 94.6129 112.461 95.2092 113.043 95.6764C113.626 96.1436 114.324 96.3772 115.137 96.3772C115.786 96.3772 116.36 96.2288 116.861 95.932C117.366 95.6297 117.762 95.2147 118.048 94.6871C118.339 94.1595 118.485 93.5576 118.485 92.8816C118.485 92.1946 118.336 91.5818 118.039 91.0431C117.743 90.5045 117.333 90.0813 116.811 89.7735C116.294 89.4657 115.701 89.3091 115.03 89.3036C114.519 89.3036 114.005 89.3915 113.489 89.5674C112.972 89.7433 112.554 89.9741 112.235 90.2599L109.902 89.9137L110.85 81.4056H120.133V83.5903H112.969L112.433 88.3143H112.532C112.862 87.9955 113.299 87.729 113.843 87.5146C114.393 87.3003 114.981 87.1931 115.607 87.1931C116.635 87.1931 117.55 87.4377 118.353 87.9268C119.161 88.416 119.795 89.0838 120.257 89.9302C120.724 90.7711 120.955 91.7384 120.95 92.8322C120.955 93.9259 120.708 94.9015 120.208 95.7589C119.713 96.6163 119.026 97.2923 118.147 97.787C117.273 98.2761 116.27 98.5207 115.137 98.5207ZM134.58 87.325L133.796 89.0233H122.955L123.573 87.325H134.58ZM133.104 90.6722L132.304 92.387H122.955L123.573 90.6722H133.104ZM136.591 82.8483L135.618 84.9341C135.311 84.6703 134.975 84.4312 134.612 84.2169C134.25 84.0025 133.86 83.8322 133.442 83.7058C133.024 83.5738 132.576 83.5079 132.098 83.5079C131.219 83.5079 130.435 83.7442 129.748 84.2169C129.061 84.6896 128.52 85.3986 128.124 86.3439C127.734 87.2838 127.539 88.4544 127.539 89.856C127.539 91.2575 127.734 92.4282 128.124 93.368C128.52 94.3079 129.061 95.0141 129.748 95.4868C130.435 95.954 131.219 96.1876 132.098 96.1876C132.582 96.1876 133.032 96.1244 133.45 95.9979C133.873 95.8715 134.258 95.7067 134.604 95.5033C134.956 95.2944 135.272 95.0746 135.552 94.8438L136.55 96.9213C135.967 97.4489 135.291 97.8474 134.522 98.1167C133.752 98.386 132.944 98.5207 132.098 98.5207C130.718 98.5207 129.496 98.1717 128.429 97.4737C127.369 96.7757 126.536 95.7809 125.931 94.4892C125.327 93.1922 125.024 91.6477 125.024 89.856C125.024 88.0587 125.327 86.5115 125.931 85.2145C126.536 83.9174 127.369 82.9198 128.429 82.2218C129.496 81.5238 130.718 81.1748 132.098 81.1748C132.977 81.1748 133.796 81.3204 134.555 81.6117C135.313 81.8975 135.992 82.3097 136.591 82.8483Z" fill="#2B2B2B"/>
<path d="M144.936 100.744V91.7444H146.18V92.8055H146.286C146.36 92.6691 146.467 92.5114 146.606 92.3325C146.745 92.1535 146.938 91.9972 147.186 91.8637C147.433 91.7274 147.759 91.6592 148.166 91.6592C148.694 91.6592 149.166 91.7927 149.58 92.0597C149.995 92.3268 150.32 92.7117 150.556 93.2146C150.795 93.7174 150.914 94.3225 150.914 95.0299C150.914 95.7373 150.796 96.3438 150.561 96.8495C150.325 97.3524 150.001 97.7401 149.589 98.0129C149.177 98.2828 148.707 98.4177 148.178 98.4177C147.781 98.4177 147.455 98.3509 147.203 98.2174C146.953 98.0839 146.757 97.9276 146.614 97.7487C146.472 97.5697 146.363 97.4106 146.286 97.2714H146.21V100.744H144.936ZM146.184 95.0171C146.184 95.4774 146.251 95.8808 146.384 96.2274C146.518 96.5739 146.711 96.8453 146.964 97.0413C147.217 97.2345 147.526 97.331 147.893 97.331C148.274 97.331 148.592 97.2302 148.847 97.0285C149.103 96.8239 149.296 96.547 149.427 96.1975C149.561 95.8481 149.627 95.4546 149.627 95.0171C149.627 94.5853 149.562 94.1975 149.431 93.8538C149.303 93.51 149.11 93.2387 148.852 93.0399C148.596 92.841 148.276 92.7416 147.893 92.7416C147.524 92.7416 147.211 92.8367 146.955 93.0271C146.703 93.2174 146.511 93.483 146.38 93.8239C146.249 94.1649 146.184 94.5626 146.184 95.0171ZM155.163 98.422C154.518 98.422 153.962 98.2842 153.497 98.0086C153.034 97.7302 152.676 97.3396 152.423 96.8367C152.173 96.331 152.048 95.7387 152.048 95.0597C152.048 94.3893 152.173 93.7984 152.423 93.287C152.676 92.7757 153.028 92.3765 153.48 92.0896C153.934 91.8026 154.465 91.6592 155.073 91.6592C155.443 91.6592 155.801 91.7203 156.147 91.8424C156.494 91.9646 156.805 92.1563 157.08 92.4177C157.356 92.6791 157.573 93.0185 157.732 93.4362C157.891 93.8509 157.971 94.3552 157.971 94.9489V95.4007H152.768V94.4461H156.722C156.722 94.1109 156.654 93.814 156.518 93.5555C156.382 93.2941 156.19 93.0882 155.943 92.9376C155.698 92.787 155.411 92.7117 155.082 92.7117C154.724 92.7117 154.411 92.7998 154.144 92.9759C153.88 93.1492 153.676 93.3765 153.531 93.6578C153.389 93.9362 153.318 94.2387 153.318 94.5654V95.3112C153.318 95.7487 153.394 96.1208 153.548 96.4276C153.704 96.7345 153.921 96.9688 154.2 97.1308C154.478 97.2899 154.803 97.3694 155.176 97.3694C155.417 97.3694 155.637 97.3353 155.836 97.2671C156.035 97.1961 156.207 97.091 156.352 96.9518C156.497 96.8126 156.607 96.6407 156.684 96.4362L157.89 96.6535C157.793 97.0086 157.62 97.3197 157.37 97.5867C157.123 97.8509 156.812 98.0569 156.437 98.2046C156.065 98.3495 155.64 98.422 155.163 98.422ZM159.385 98.2899V91.7444H160.616V92.7842H160.684C160.804 92.4319 161.014 92.1549 161.315 91.9532C161.619 91.7487 161.963 91.6464 162.346 91.6464C162.426 91.6464 162.52 91.6492 162.628 91.6549C162.738 91.6606 162.825 91.6677 162.888 91.6762V92.895C162.836 92.8808 162.746 92.8651 162.615 92.8481C162.484 92.8282 162.353 92.8183 162.223 92.8183C161.922 92.8183 161.653 92.8822 161.417 93.01C161.184 93.135 161 93.3097 160.863 93.5342C160.727 93.7558 160.659 94.0086 160.659 94.2927V98.2899H159.385ZM168.585 98.2899L166.659 91.7444H167.976L169.258 96.5512H169.322L170.609 91.7444H171.926L173.204 96.5299H173.268L174.542 91.7444H175.859L173.937 98.2899H172.638L171.308 93.564H171.21L169.88 98.2899H168.585ZM179.626 98.422C179.013 98.422 178.477 98.2813 178.02 98.0001C177.562 97.7188 177.207 97.3254 176.954 96.8197C176.701 96.314 176.575 95.7231 176.575 95.047C176.575 94.368 176.701 93.7742 176.954 93.2657C177.207 92.7572 177.562 92.3623 178.02 92.081C178.477 91.7998 179.013 91.6592 179.626 91.6592C180.24 91.6592 180.775 91.7998 181.233 92.081C181.69 92.3623 182.045 92.7572 182.298 93.2657C182.551 93.7742 182.677 94.368 182.677 95.047C182.677 95.7231 182.551 96.314 182.298 96.8197C182.045 97.3254 181.69 97.7188 181.233 98.0001C180.775 98.2813 180.24 98.422 179.626 98.422ZM179.63 97.3524C180.028 97.3524 180.358 97.2472 180.619 97.037C180.88 96.8268 181.074 96.547 181.199 96.1975C181.326 95.8481 181.39 95.4632 181.39 95.0427C181.39 94.6251 181.326 94.2416 181.199 93.8921C181.074 93.5399 180.88 93.2572 180.619 93.0441C180.358 92.831 180.028 92.7245 179.63 92.7245C179.23 92.7245 178.898 92.831 178.633 93.0441C178.372 93.2572 178.177 93.5399 178.049 93.8921C177.924 94.2416 177.862 94.6251 177.862 95.0427C177.862 95.4632 177.924 95.8481 178.049 96.1975C178.177 96.547 178.372 96.8268 178.633 97.037C178.898 97.2472 179.23 97.3524 179.63 97.3524ZM184.1 98.2899V91.7444H185.331V92.7842H185.399C185.519 92.4319 185.729 92.1549 186.03 91.9532C186.334 91.7487 186.678 91.6464 187.061 91.6464C187.141 91.6464 187.235 91.6492 187.342 91.6549C187.453 91.6606 187.54 91.6677 187.602 91.6762V92.895C187.551 92.8808 187.46 92.8651 187.33 92.8481C187.199 92.8282 187.068 92.8183 186.938 92.8183C186.636 92.8183 186.368 92.8822 186.132 93.01C185.899 93.135 185.715 93.3097 185.578 93.5342C185.442 93.7558 185.374 94.0086 185.374 94.2927V98.2899H184.1ZM189.877 96.0697L189.868 94.5143H190.09L192.698 91.7444H194.223L191.249 94.8978H191.049L189.877 96.0697ZM188.705 98.2899V89.5626H189.979V98.2899H188.705ZM192.839 98.2899L190.495 95.1791L191.373 94.2884L194.402 98.2899H192.839ZM200.29 93.3424L199.135 93.547C199.086 93.3992 199.01 93.2586 198.905 93.1251C198.802 92.9916 198.663 92.8822 198.487 92.797C198.311 92.7117 198.091 92.6691 197.826 92.6691C197.466 92.6691 197.165 92.7501 196.923 92.912C196.682 93.0711 196.561 93.2771 196.561 93.5299C196.561 93.7487 196.642 93.9248 196.804 94.0583C196.966 94.1918 197.227 94.3012 197.588 94.3864L198.628 94.6251C199.23 94.7643 199.679 94.9788 199.974 95.2685C200.27 95.5583 200.417 95.9347 200.417 96.3978C200.417 96.7899 200.304 97.1393 200.076 97.4461C199.852 97.7501 199.538 97.9887 199.135 98.162C198.734 98.3353 198.27 98.422 197.741 98.422C197.008 98.422 196.41 98.2657 195.947 97.9532C195.484 97.6379 195.2 97.1904 195.095 96.6109L196.326 96.4234C196.403 96.7444 196.561 96.9873 196.799 97.1521C197.038 97.314 197.349 97.395 197.733 97.395C198.15 97.395 198.484 97.3083 198.734 97.135C198.984 96.9589 199.109 96.7444 199.109 96.4916C199.109 96.287 199.032 96.1151 198.879 95.9759C198.728 95.8367 198.497 95.7316 198.184 95.6606L197.076 95.4177C196.466 95.2785 196.014 95.0569 195.721 94.7529C195.432 94.4489 195.287 94.064 195.287 93.5981C195.287 93.2117 195.395 92.8737 195.611 92.5839C195.826 92.2941 196.125 92.0683 196.505 91.9063C196.886 91.7416 197.322 91.6592 197.814 91.6592C198.521 91.6592 199.078 91.8126 199.484 92.1194C199.89 92.4234 200.159 92.831 200.29 93.3424ZM203.092 94.4035V98.2899H201.818V89.5626H203.075V92.8097H203.156C203.31 92.4575 203.544 92.1776 203.86 91.9703C204.175 91.7629 204.587 91.6592 205.095 91.6592C205.544 91.6592 205.936 91.7515 206.271 91.9362C206.61 92.1208 206.871 92.3964 207.056 92.7629C207.243 93.1265 207.337 93.581 207.337 94.1265V98.2899H206.063V94.2799C206.063 93.7998 205.939 93.4276 205.692 93.1634C205.445 92.8964 205.101 92.7629 204.661 92.7629C204.36 92.7629 204.09 92.8268 203.851 92.9546C203.615 93.0825 203.429 93.27 203.293 93.5171C203.159 93.7614 203.092 94.0569 203.092 94.4035ZM209.037 98.2899V91.7444H210.311V98.2899H209.037ZM209.681 90.7345C209.459 90.7345 209.269 90.6606 209.109 90.5129C208.953 90.3623 208.875 90.1833 208.875 89.9759C208.875 89.7657 208.953 89.5867 209.109 89.439C209.269 89.2884 209.459 89.2132 209.681 89.2132C209.902 89.2132 210.091 89.2884 210.247 89.439C210.406 89.5867 210.486 89.7657 210.486 89.9759C210.486 90.1833 210.406 90.3623 210.247 90.5129C210.091 90.6606 209.902 90.7345 209.681 90.7345ZM215.14 91.7444V92.7671H211.442V91.7444H215.14ZM212.456 98.2899V90.9859C212.456 90.5768 212.545 90.2373 212.724 89.9674C212.903 89.6947 213.14 89.4916 213.436 89.358C213.731 89.2217 214.052 89.1535 214.399 89.1535C214.655 89.1535 214.873 89.1748 215.055 89.2174C215.237 89.2572 215.372 89.2941 215.46 89.3282L215.162 90.3595C215.102 90.3424 215.025 90.3225 214.932 90.2998C214.838 90.2742 214.724 90.2614 214.591 90.2614C214.281 90.2614 214.059 90.3382 213.926 90.4916C213.795 90.645 213.73 90.8666 213.73 91.1563V98.2899H212.456ZM219.51 91.7444V92.7671H215.935V91.7444H219.51ZM216.894 90.1762H218.168V96.368C218.168 96.6151 218.205 96.8012 218.279 96.9262C218.353 97.0484 218.448 97.1322 218.564 97.1776C218.684 97.2203 218.813 97.2416 218.952 97.2416C219.054 97.2416 219.144 97.2345 219.221 97.2203C219.297 97.206 219.357 97.1947 219.4 97.1862L219.63 98.2387C219.556 98.2671 219.451 98.2955 219.314 98.3239C219.178 98.3552 219.008 98.3722 218.803 98.3751C218.468 98.3808 218.155 98.3211 217.866 98.1961C217.576 98.0711 217.341 97.8779 217.162 97.6166C216.983 97.3552 216.894 97.0271 216.894 96.6322V90.1762Z" fill="#666666"/>
<path d="M77.9787 62.0377H76.348L80.0121 51.8559H81.7869L85.451 62.0377H83.8203L80.9418 53.7053H80.8622L77.9787 62.0377ZM78.2521 58.0505H83.5419V59.3431H78.2521V58.0505ZM92.3777 54.4013L89.6085 62.0377H88.0176L85.2434 54.4013H86.8393L88.7733 60.2777H88.8528L90.7818 54.4013H92.3777ZM96.8061 62.1918C96.0537 62.1918 95.4058 62.0311 94.8622 61.7096C94.322 61.3848 93.9044 60.929 93.6094 60.3424C93.3177 59.7524 93.1719 59.0614 93.1719 58.2692C93.1719 57.487 93.3177 56.7976 93.6094 56.201C93.9044 55.6044 94.3153 55.1388 94.8423 54.804C95.3726 54.4693 95.9924 54.3019 96.7017 54.3019C97.1326 54.3019 97.5502 54.3732 97.9545 54.5157C98.3589 54.6582 98.7218 54.8819 99.0433 55.1868C99.3648 55.4918 99.6184 55.8878 99.804 56.375C99.9896 56.8589 100.082 57.4473 100.082 58.14V58.6669H94.0121V57.5533H98.6257C98.6257 57.1622 98.5462 56.8159 98.3871 56.5143C98.228 56.2093 98.0043 55.969 97.7159 55.7934C97.4309 55.6177 97.0961 55.5299 96.7116 55.5299C96.294 55.5299 95.9294 55.6326 95.6179 55.8381C95.3097 56.0403 95.071 56.3054 94.902 56.6336C94.7363 56.9584 94.6534 57.3114 94.6534 57.6925V58.5625C94.6534 59.073 94.7429 59.5071 94.9219 59.8651C95.1042 60.2231 95.3577 60.4965 95.6825 60.6854C96.0073 60.871 96.3868 60.9638 96.821 60.9638C97.1027 60.9638 97.3596 60.9241 97.5916 60.8445C97.8236 60.7616 98.0241 60.639 98.1932 60.4766C98.3622 60.3142 98.4915 60.1137 98.581 59.875L99.9879 60.1286C99.8752 60.5429 99.6731 60.9058 99.3814 61.2174C99.093 61.5256 98.7301 61.7659 98.2926 61.9383C97.8584 62.1073 97.3629 62.1918 96.8061 62.1918ZM101.732 62.0377V54.4013H103.168V55.6144H103.248C103.387 55.2034 103.633 54.8803 103.984 54.6449C104.338 54.4063 104.74 54.287 105.187 54.287C105.28 54.287 105.389 54.2903 105.515 54.2969C105.644 54.3036 105.745 54.3118 105.818 54.3218V55.7437C105.759 55.7271 105.653 55.7089 105.5 55.689C105.348 55.6658 105.195 55.6542 105.043 55.6542C104.691 55.6542 104.378 55.7287 104.103 55.8779C103.831 56.0237 103.616 56.2276 103.457 56.4894C103.298 56.7479 103.218 57.0429 103.218 57.3743V62.0377H101.732ZM109.259 62.2067C108.775 62.2067 108.337 62.1172 107.946 61.9383C107.555 61.756 107.245 61.4925 107.017 61.1478C106.791 60.8031 106.678 60.3805 106.678 59.88C106.678 59.4491 106.761 59.0945 106.927 58.8161C107.093 58.5377 107.316 58.3173 107.598 58.1549C107.88 57.9925 108.195 57.8698 108.543 57.787C108.891 57.7041 109.245 57.6411 109.607 57.5981C110.064 57.545 110.435 57.5019 110.72 57.4688C111.005 57.4323 111.213 57.3743 111.342 57.2948C111.471 57.2152 111.536 57.086 111.536 56.907V56.8722C111.536 56.438 111.413 56.1016 111.168 55.863C110.926 55.6243 110.565 55.505 110.084 55.505C109.584 55.505 109.189 55.6161 108.901 55.8381C108.616 56.0569 108.418 56.3005 108.309 56.5689L106.912 56.2508C107.078 55.7867 107.32 55.4122 107.638 55.1272C107.959 54.8388 108.329 54.63 108.747 54.5008C109.164 54.3682 109.603 54.3019 110.064 54.3019C110.369 54.3019 110.692 54.3384 111.034 54.4113C111.378 54.4809 111.7 54.6101 111.998 54.7991C112.3 54.988 112.547 55.2581 112.739 55.6094C112.931 55.9574 113.027 56.4098 113.027 56.9667V62.0377H111.575V60.9937H111.516C111.42 61.1859 111.276 61.3748 111.083 61.5604C110.891 61.746 110.644 61.9001 110.343 62.0228C110.041 62.1454 109.68 62.2067 109.259 62.2067ZM109.582 61.0135C109.993 61.0135 110.344 60.9323 110.636 60.7699C110.931 60.6075 111.155 60.3954 111.307 60.1336C111.463 59.8684 111.541 59.585 111.541 59.2834V58.2991C111.488 58.3521 111.385 58.4018 111.232 58.4482C111.083 58.4913 110.913 58.5294 110.72 58.5625C110.528 58.5924 110.341 58.6205 110.159 58.6471C109.976 58.6703 109.824 58.6902 109.701 58.7067C109.413 58.7432 109.149 58.8045 108.911 58.8907C108.675 58.9768 108.486 59.1011 108.344 59.2635C108.205 59.4226 108.135 59.6348 108.135 59.8999C108.135 60.2678 108.271 60.5462 108.543 60.7351C108.815 60.9207 109.161 61.0135 109.582 61.0135ZM118.209 65.0604C117.602 65.0604 117.08 64.9809 116.643 64.8218C116.209 64.6627 115.854 64.4522 115.579 64.1904C115.304 63.9286 115.098 63.6419 114.962 63.3303L116.24 62.8033C116.33 62.9491 116.449 63.1033 116.598 63.2657C116.75 63.4314 116.956 63.5723 117.214 63.6883C117.476 63.8043 117.813 63.8623 118.224 63.8623C118.787 63.8623 119.253 63.7247 119.621 63.4496C119.989 63.1778 120.173 62.7437 120.173 62.1471V60.6456H120.078C119.989 60.808 119.859 60.9887 119.69 61.1875C119.525 61.3864 119.296 61.5588 119.004 61.7046C118.713 61.8504 118.333 61.9233 117.866 61.9233C117.263 61.9233 116.719 61.7825 116.235 61.5008C115.754 61.2157 115.373 60.7964 115.092 60.2429C114.813 59.6861 114.674 59.0017 114.674 58.1897C114.674 57.3777 114.812 56.6816 115.087 56.1016C115.365 55.5216 115.746 55.0775 116.23 54.7692C116.714 54.4577 117.263 54.3019 117.876 54.3019C118.35 54.3019 118.732 54.3814 119.024 54.5405C119.316 54.6963 119.543 54.8786 119.705 55.0874C119.871 55.2962 119.999 55.4802 120.088 55.6393H120.197V54.4013H121.654V62.2067C121.654 62.863 121.502 63.4016 121.197 63.8225C120.892 64.2434 120.479 64.555 119.959 64.7571C119.442 64.9593 118.858 65.0604 118.209 65.0604ZM118.194 60.6904C118.621 60.6904 118.983 60.591 119.278 60.3921C119.576 60.1899 119.801 59.9016 119.954 59.527C120.11 59.1492 120.187 58.6968 120.187 58.1698C120.187 57.6561 120.111 57.2036 119.959 56.8125C119.806 56.4214 119.583 56.1165 119.288 55.8978C118.993 55.6757 118.628 55.5647 118.194 55.5647C117.746 55.5647 117.374 55.6807 117.075 55.9127C116.777 56.1414 116.552 56.4529 116.399 56.8473C116.25 57.2418 116.175 57.6826 116.175 58.1698C116.175 58.6703 116.252 59.1094 116.404 59.4873C116.557 59.8651 116.782 60.1601 117.08 60.3722C117.382 60.5843 117.753 60.6904 118.194 60.6904ZM126.939 62.1918C126.187 62.1918 125.539 62.0311 124.995 61.7096C124.455 61.3848 124.037 60.929 123.742 60.3424C123.451 59.7524 123.305 59.0614 123.305 58.2692C123.305 57.487 123.451 56.7976 123.742 56.201C124.037 55.6044 124.448 55.1388 124.975 54.804C125.505 54.4693 126.125 54.3019 126.835 54.3019C127.265 54.3019 127.683 54.3732 128.087 54.5157C128.492 54.6582 128.855 54.8819 129.176 55.1868C129.498 55.4918 129.751 55.8878 129.937 56.375C130.122 56.8589 130.215 57.4473 130.215 58.14V58.6669H124.145V57.5533H128.759C128.759 57.1622 128.679 56.8159 128.52 56.5143C128.361 56.2093 128.137 55.969 127.849 55.7934C127.564 55.6177 127.229 55.5299 126.844 55.5299C126.427 55.5299 126.062 55.6326 125.751 55.8381C125.442 56.0403 125.204 56.3054 125.035 56.6336C124.869 56.9584 124.786 57.3114 124.786 57.6925V58.5625C124.786 59.073 124.876 59.5071 125.055 59.8651C125.237 60.2231 125.491 60.4965 125.815 60.6854C126.14 60.871 126.52 60.9638 126.954 60.9638C127.236 60.9638 127.492 60.9241 127.724 60.8445C127.956 60.7616 128.157 60.639 128.326 60.4766C128.495 60.3142 128.624 60.1137 128.714 59.875L130.121 60.1286C130.008 60.5429 129.806 60.9058 129.514 61.2174C129.226 61.5256 128.863 61.7659 128.425 61.9383C127.991 62.1073 127.496 62.1918 126.939 62.1918ZM144.146 55.1669H142.594C142.535 54.8355 142.424 54.5438 142.261 54.2919C142.099 54.0401 141.9 53.8263 141.665 53.6506C141.429 53.475 141.166 53.3424 140.874 53.2529C140.586 53.1634 140.279 53.1187 139.955 53.1187C139.368 53.1187 138.843 53.2661 138.379 53.5611C137.918 53.8561 137.553 54.2886 137.285 54.8587C137.02 55.4288 136.887 56.1248 136.887 56.9468C136.887 57.7754 137.02 58.4747 137.285 59.0448C137.553 59.6149 137.92 60.0457 138.384 60.3374C138.848 60.6291 139.37 60.7749 139.95 60.7749C140.271 60.7749 140.576 60.7318 140.864 60.6456C141.156 60.5562 141.42 60.4252 141.655 60.2529C141.89 60.0805 142.089 59.8701 142.251 59.6215C142.417 59.3696 142.531 59.0812 142.594 58.7564L144.146 58.7614C144.063 59.2619 143.902 59.7226 143.663 60.1435C143.428 60.5611 143.125 60.9224 142.754 61.2273C142.386 61.5289 141.965 61.7626 141.491 61.9283C141.017 62.094 140.5 62.1769 139.94 62.1769C139.058 62.1769 138.272 61.9681 137.583 61.5505C136.894 61.1295 136.35 60.528 135.952 59.7458C135.558 58.9636 135.361 58.0306 135.361 56.9468C135.361 55.8597 135.56 54.9267 135.957 54.1478C136.355 53.3656 136.899 52.7657 137.588 52.3481C138.277 51.9271 139.061 51.7167 139.94 51.7167C140.48 51.7167 140.984 51.7946 141.451 51.9503C141.922 52.1028 142.344 52.3282 142.719 52.6265C143.093 52.9214 143.403 53.2827 143.648 53.7103C143.894 54.1345 144.059 54.6201 144.146 55.1669ZM147.351 57.5036V62.0377H145.865V51.8559H147.331V55.6442H147.426C147.605 55.2332 147.878 54.9068 148.246 54.6648C148.614 54.4229 149.094 54.3019 149.688 54.3019C150.211 54.3019 150.669 54.4096 151.06 54.625C151.454 54.8405 151.759 55.162 151.975 55.5895C152.193 56.0138 152.303 56.5441 152.303 57.1804V62.0377H150.816V57.3594C150.816 56.7993 150.672 56.3651 150.384 56.0569C150.095 55.7453 149.694 55.5895 149.181 55.5895C148.829 55.5895 148.514 55.6641 148.236 55.8133C147.961 55.9624 147.744 56.1812 147.585 56.4695C147.429 56.7545 147.351 57.0992 147.351 57.5036ZM157.578 62.1918C156.825 62.1918 156.177 62.0311 155.634 61.7096C155.093 61.3848 154.676 60.929 154.381 60.3424C154.089 59.7524 153.943 59.0614 153.943 58.2692C153.943 57.487 154.089 56.7976 154.381 56.201C154.676 55.6044 155.087 55.1388 155.614 54.804C156.144 54.4693 156.764 54.3019 157.473 54.3019C157.904 54.3019 158.322 54.3732 158.726 54.5157C159.13 54.6582 159.493 54.8819 159.815 55.1868C160.136 55.4918 160.39 55.8878 160.575 56.375C160.761 56.8589 160.854 57.4473 160.854 58.14V58.6669H154.784V57.5533H159.397C159.397 57.1622 159.318 56.8159 159.159 56.5143C158.999 56.2093 158.776 55.969 158.487 55.7934C158.202 55.6177 157.868 55.5299 157.483 55.5299C157.066 55.5299 156.701 55.6326 156.389 55.8381C156.081 56.0403 155.843 56.3054 155.673 56.6336C155.508 56.9584 155.425 57.3114 155.425 57.6925V58.5625C155.425 59.073 155.514 59.5071 155.693 59.8651C155.876 60.2231 156.129 60.4965 156.454 60.6854C156.779 60.871 157.158 60.9638 157.593 60.9638C157.874 60.9638 158.131 60.9241 158.363 60.8445C158.595 60.7616 158.796 60.639 158.965 60.4766C159.134 60.3142 159.263 60.1137 159.352 59.875L160.759 60.1286C160.647 60.5429 160.445 60.9058 160.153 61.2174C159.865 61.5256 159.502 61.7659 159.064 61.9383C158.63 62.1073 158.134 62.1918 157.578 62.1918ZM165.72 62.1918C164.981 62.1918 164.344 62.0244 163.811 61.6897C163.28 61.3516 162.873 60.8859 162.588 60.2927C162.303 59.6994 162.16 59.0199 162.16 58.2543C162.16 57.4787 162.306 56.7943 162.598 56.201C162.889 55.6044 163.3 55.1388 163.831 54.804C164.361 54.4693 164.986 54.3019 165.705 54.3019C166.285 54.3019 166.802 54.4096 167.256 54.625C167.71 54.8372 168.076 55.1355 168.355 55.5199C168.636 55.9044 168.804 56.3535 168.857 56.8672H167.41C167.331 56.5093 167.148 56.201 166.863 55.9425C166.582 55.684 166.204 55.5547 165.73 55.5547C165.315 55.5547 164.953 55.6641 164.641 55.8829C164.333 56.0983 164.092 56.4065 163.92 56.8076C163.748 57.2053 163.662 57.6759 163.662 58.2195C163.662 58.7763 163.746 59.2569 163.915 59.6613C164.084 60.0656 164.323 60.3788 164.631 60.6009C164.943 60.823 165.309 60.934 165.73 60.934C166.011 60.934 166.267 60.8826 166.495 60.7799C166.727 60.6738 166.921 60.523 167.077 60.3275C167.236 60.1319 167.347 59.8966 167.41 59.6215H168.857C168.804 60.1153 168.643 60.5562 168.375 60.9439C168.106 61.3317 167.747 61.6366 167.296 61.8587C166.848 62.0808 166.323 62.1918 165.72 62.1918ZM171.814 59.4475L171.804 57.6329H172.062L175.105 54.4013H176.885L173.415 58.0803H173.181L171.814 59.4475ZM170.447 62.0377V51.8559H171.933V62.0377H170.447ZM175.269 62.0377L172.535 58.4084L173.559 57.3694L177.094 62.0377H175.269Z" fill="#333333"/>
<path d="M274.437 49.8231H263.4C262.772 49.8231 262.171 50.0489 261.727 50.4508C261.284 50.8527 261.034 51.3977 261.034 51.9661V61.9668C261.034 62.5351 261.284 63.0802 261.727 63.4821C262.171 63.884 262.772 64.1098 263.4 64.1098H274.437C275.064 64.1098 275.666 63.884 276.109 63.4821C276.553 63.0802 276.802 62.5351 276.802 61.9668V51.9661C276.802 51.3977 276.553 50.8527 276.109 50.4508C275.666 50.0489 275.064 49.8231 274.437 49.8231ZM274.437 51.2518C274.646 51.2518 274.846 51.327 274.994 51.461C275.142 51.5949 275.225 51.7766 275.225 51.9661V56.2521H269.707V51.2518H274.437ZM262.611 51.9661C262.611 51.7766 262.694 51.5949 262.842 51.461C262.99 51.327 263.19 51.2518 263.4 51.2518H268.13V56.2521H262.611V51.9661ZM263.4 62.6811C263.19 62.6811 262.99 62.6058 262.842 62.4719C262.694 62.3379 262.611 62.1562 262.611 61.9668V57.6808H268.13V62.6811H263.4ZM275.225 61.9668C275.225 62.1562 275.142 62.3379 274.994 62.4719C274.846 62.6058 274.646 62.6811 274.437 62.6811H269.707V57.6808H275.225V61.9668Z" fill="#999999"/>
<path d="M287.193 56.9663C287.193 66.049 279.052 73.4852 268.916 73.4852C258.779 73.4852 250.638 66.049 250.638 56.9663C250.638 47.8835 258.779 40.4473 268.916 40.4473C279.052 40.4473 287.193 47.8835 287.193 56.9663Z" stroke="#EEF0F2" stroke-width="0.892917"/>
<path d="M313.034 50.5366C313.034 50.1421 312.694 49.8223 312.276 49.8223C311.857 49.8223 311.518 50.1421 311.518 50.5366V57.8127L310.083 56.4605C309.786 56.1815 309.307 56.1815 309.01 56.4605C308.714 56.7395 308.714 57.1917 309.01 57.4707L311.739 60.0423C311.82 60.1185 311.915 60.1738 312.015 60.2084C312.097 60.2363 312.184 60.2515 312.276 60.2515C312.394 60.2515 312.506 60.226 312.606 60.1804C312.652 60.1594 312.696 60.1338 312.738 60.1035C312.766 60.0829 312.793 60.0604 312.818 60.0363L315.541 57.4707C315.837 57.1917 315.837 56.7395 315.541 56.4605C315.244 56.1815 314.764 56.1815 314.468 56.4605L313.034 57.8126V50.5366Z" fill="#999999"/>
<path d="M306.135 59.4658C306.554 59.4658 306.893 59.7856 306.893 60.1801V62.1088C306.893 62.2604 306.957 62.4057 307.071 62.5129C307.185 62.6201 307.339 62.6803 307.5 62.6803H317.051C317.212 62.6803 317.366 62.6201 317.48 62.5129C317.594 62.4057 317.658 62.2604 317.658 62.1088V60.1801C317.658 59.7856 317.997 59.4658 318.416 59.4658C318.834 59.4658 319.174 59.7856 319.174 60.1801V62.1088C319.174 62.6393 318.95 63.148 318.552 63.5231C318.154 63.8982 317.614 64.1089 317.051 64.1089H307.5C306.937 64.1089 306.397 63.8982 305.999 63.5231C305.601 63.148 305.377 62.6393 305.377 62.1088V60.1801C305.377 59.7856 305.717 59.4658 306.135 59.4658Z" fill="#999999"/>
<path d="M330.553 56.9654C330.553 66.0482 322.413 73.4844 312.276 73.4844C302.139 73.4844 293.998 66.0482 293.998 56.9654C293.998 47.8827 302.139 40.4465 312.276 40.4465C322.413 40.4465 330.553 47.8827 330.553 56.9654Z" stroke="#EEF0F2" stroke-width="0.892917"/>
<path d="M108.255 228.532C108.255 226.806 109.654 225.407 111.38 225.407V225.407C113.106 225.407 114.505 226.806 114.505 228.532V303.091H108.255V228.532Z" fill="#5F6DFF"/>
<path d="M315.411 157.098C315.411 155.372 316.81 153.973 318.536 153.973V153.973C320.262 153.973 321.661 155.372 321.661 157.098V303.09H315.411V157.098Z" fill="#5F6DFF"/>
<path d="M289.516 234.784C289.516 233.058 290.916 231.658 292.642 231.658V231.658C294.368 231.658 295.767 233.057 295.767 234.784V303.092H289.516V234.784Z" fill="#5F6DFF"/>
<path d="M263.622 178.529C263.622 176.803 265.021 175.403 266.747 175.403V175.403C268.473 175.403 269.872 176.803 269.872 178.529V303.091H263.622V178.529Z" fill="#5F6DFF"/>
<path d="M237.727 193.709C237.727 191.983 239.127 190.584 240.853 190.584V190.584C242.579 190.584 243.978 191.983 243.978 193.709V303.092H237.727V193.709Z" fill="#5F6DFF"/>
<path d="M211.833 228.532C211.833 226.806 213.233 225.407 214.959 225.407V225.407C216.685 225.407 218.084 226.806 218.084 228.532V303.09H211.833V228.532Z" fill="#5F6DFF"/>
<path d="M185.939 236.569C185.939 234.843 187.338 233.444 189.064 233.444V233.444C190.79 233.444 192.189 234.843 192.189 236.569V303.092H185.939V236.569Z" fill="#5F6DFF"/>
<path d="M160.043 155.313C160.043 153.587 161.443 152.188 163.169 152.188V152.188C164.895 152.188 166.294 153.587 166.294 155.313V303.091H160.043V155.313Z" fill="#5F6DFF"/>
<path d="M134.153 259.784C134.153 258.058 135.552 256.658 137.278 256.658V256.658C139.004 256.658 140.404 258.057 140.404 259.784V303.09H134.153V259.784Z" fill="#5F6DFF"/>
<defs>
<filter id="filter0_d_44_161" x="0" y="0" width="410.271" height="443.309" filterUnits="userSpaceOnUse" color-interpolation-filters="sRGB">
<feFlood flood-opacity="0" result="BackgroundImageFix"/>
<feColorMatrix in="SourceAlpha" type="matrix" values="0 0 0 0 0 0 0 0 0 0 0 0 0 0 0 0 0 0 127 0" result="hardAlpha"/>
<feMorphology radius="18" operator="erode" in="SourceAlpha" result="effect1_dropShadow_44_161"/>
<feOffset dy="40"/>
<feGaussianBlur stdDeviation="35"/>
<feColorMatrix type="matrix" values="0 0 0 0 0 0 0 0 0 0 0 0 0 0 0 0 0 0 0.1 0"/>
<feBlend mode="normal" in2="BackgroundImageFix" result="effect1_dropShadow_44_161"/>
<feBlend mode="normal" in="SourceGraphic" in2="effect1_dropShadow_44_161" result="shape"/>
</filter>
</defs>
</svg>
