<svg width="250" height="43" viewBox="0 0 250 43" fill="none" xmlns="http://www.w3.org/2000/svg">
<path d="M245.778 8.75879H249.114L235.579 24.0763C235.229 24.4562 235.22 25.0619 235.559 25.4519L243.368 34.4453H239.883L232.667 26.1089L232.308 25.6574C231.967 25.2672 231.976 24.6615 232.326 24.2816L245.778 8.75879Z" fill="#B0B0B0"/>
<path d="M238.262 25.4623C238.04 25.2057 237.962 24.8566 238.04 24.5382C238.102 24.3639 238.233 24.1686 238.352 24.0352L239.254 23.0497L249.192 34.4454H246.028C246.028 34.4454 240.204 27.7105 238.262 25.4623Z" fill="#B0B0B0"/>
<path d="M220.865 34.4453H217.391L228.041 22.2283C228.382 21.8382 228.382 21.253 228.041 20.8731L217.471 8.75879H220.815L231.445 20.9759C231.715 21.3351 231.765 21.8587 231.474 22.1975C228.692 25.3904 220.865 34.4453 220.865 34.4453Z" fill="#B0B0B0"/>
<path d="M226.691 8.75879H223.476L233.326 20.062C233.326 20.062 233.356 20.0415 234.457 18.7583C234.757 18.4092 234.819 17.9781 234.487 17.6495C232.415 15.5448 226.691 8.75879 226.691 8.75879Z" fill="#B0B0B0"/>
<path d="M236.28 16.6434L243.116 8.75879H239.883L236.31 12.8859L235.279 14.0768C234.929 14.4566 234.92 15.0521 235.259 15.4524C235.52 15.7502 236.28 16.6434 236.28 16.6434Z" fill="#B0B0B0"/>
<path d="M230.343 26.5609L223.507 34.4453H226.74L230.314 30.3183L231.344 29.1274C231.694 28.7476 231.706 28.1521 231.364 27.7517C231.103 27.4541 230.343 26.5609 230.343 26.5609Z" fill="#B0B0B0"/>
<path d="M58.8155 11.7926H61.5348C62.0611 11.7926 62.5875 12.0616 62.9384 12.4652L68.7717 19.9084L74.6049 12.4652C74.9558 12.0168 75.4384 11.7926 76.0085 11.7926H78.7278V30.804H74.7365V18.2942L68.7717 25.9168L62.8068 18.2942V30.804H58.8155V11.7926Z" fill="#B0B0B0"/>
<path d="M83.3333 11.7926H86.0527C86.579 11.7926 87.1053 12.0616 87.456 12.4652L93.2896 19.9084L99.1229 12.4652C99.4737 12.0168 99.956 11.7926 100.526 11.7926H103.246V30.804H99.2546V18.2942L93.2896 25.9168L87.3246 18.2942V30.804H83.3333V11.7926Z" fill="#B0B0B0"/>
<path d="M123.552 22.9125V11.7926H120.789C120.088 11.7926 119.561 12.3755 119.561 13.0481V22.9125C119.561 25.6477 117.851 27.3963 115.438 27.3963C113.026 27.3963 111.316 25.6477 111.316 22.9125V13.0481C111.316 12.3307 110.745 11.7926 110.088 11.7926H107.324V22.9125C107.324 26.8135 109.43 29.7727 112.719 30.804C113.552 31.0731 114.474 31.2076 115.438 31.2076C116.403 31.2076 117.324 31.0731 118.158 30.804C121.447 29.7727 123.552 26.8135 123.552 22.9125Z" fill="#B0B0B0"/>
<path d="M140.876 15.6038V11.7926H126.272V15.6038H131.579V30.804H135.57V15.6038H140.876Z" fill="#B0B0B0"/>
<path d="M147.412 12.9584L140.658 30.804H144.912L146.492 26.4547H153.684L155.264 30.804H159.518L152.806 12.9584C152.544 12.241 151.886 11.7926 151.14 11.7926H149.122C148.378 11.7926 147.72 12.241 147.412 12.9584ZM147.894 22.778L150.088 16.5455H150.176L152.368 22.778H147.894Z" fill="#B0B0B0"/>
<path d="M176.842 25.3786C176.842 23.5402 175.964 22.4193 175.132 21.7019C174.606 21.2984 174.034 20.9845 173.42 20.7603C173.86 20.581 174.298 20.2671 174.65 19.9084C175.306 19.2806 175.92 18.339 175.92 16.8144C175.92 14.0794 173.684 11.7926 169.956 11.7926H162.106V30.804H170.482C174.43 30.804 176.842 28.3379 176.842 25.3786ZM166.052 15.3348H169.65C171.008 15.3348 171.754 16.1418 171.754 17.2181C171.754 18.2942 170.964 19.1012 169.65 19.1012H166.052V15.3348ZM170.176 27.2618H166.052V22.6434H170.176C171.754 22.6434 172.72 23.5851 172.72 24.9303C172.72 26.365 171.798 27.2618 170.176 27.2618Z" fill="#B0B0B0"/>
<path d="M184.21 26.9929V13.0481C184.21 12.3307 183.64 11.7926 182.982 11.7926H180.22V30.804H192.85V26.9929H184.21Z" fill="#B0B0B0"/>
<path d="M196.754 11.7926H209.342V15.6038H199.518V19.2806H207.236V22.9573H199.518V27.0375H209.606V30.849H196.754C196.052 30.849 195.526 30.266 195.526 29.5933V13.0481C195.526 12.3755 196.096 11.7926 196.754 11.7926Z" fill="#B0B0B0"/>
<path d="M50.6142 17.1283L54.4737 14.8416V11.7926H51.7106C51.0087 11.7926 50.4826 12.3755 50.4826 13.0481V17.2181L50.6142 17.1283Z" fill="#B0B0B0"/>
<path d="M50.6142 19.5041L50.4826 19.5937V30.8033H54.4737V17.2173L50.6142 19.5041Z" fill="#B0B0B0"/>
<path d="M37.8507 12.5534V23.4491C37.8507 24.6147 37.2367 25.736 36.228 26.3188L20.921 35.3761V30.668L33.2456 23.4043C33.6403 23.18 33.8597 22.7765 33.8597 22.3281V8.2937L36.228 9.68369C37.2367 10.3114 37.8507 11.3876 37.8507 12.5534Z" fill="#B0B0B0"/>
<path d="M16.9298 38.2911V42.9991L1.6228 33.9867C0.614036 33.359 0 32.2829 0 31.117V20.2212C0 19.0555 0.614036 17.9344 1.6228 17.3516L12.4561 10.9397L16.4474 13.3161L4.60527 20.3109C4.21053 20.5351 3.99123 20.9386 3.99123 21.3871V29.9063C3.99123 30.3548 4.21053 30.7582 4.60527 30.9825L16.9298 38.2911Z" fill="#B0B0B0"/>
<path d="M37.8507 28.2919V31.1168C37.8507 32.2826 37.2367 33.4034 36.228 33.9864L20.921 42.9989V38.2908L37.8507 28.2919Z" fill="#B0B0B0"/>
<path d="M24.9123 10.6717V15.3798L13.0702 8.385C12.6754 8.1608 12.2368 8.1608 11.8421 8.385L0 15.3798V12.555C0 11.3892 0.614036 10.2682 1.6228 9.68532L10.8333 4.25987C11.8421 3.67697 13.0702 3.67697 14.079 4.25987L24.9123 10.6717Z" fill="#B0B0B0"/>
<path d="M16.9303 30.6683V35.3763L6.44783 29.1885V22.104L10.4829 19.7725V26.857L16.9303 30.6683Z" fill="#B0B0B0"/>
<path d="M29.7804 5.87348C30.7894 6.45638 31.4034 7.57734 31.4034 8.74315V21.5669L27.4121 23.8985V9.95376C27.4121 9.50538 27.193 9.10186 26.7981 8.87766L14.9561 1.88287L17.3245 0.448039C18.3333 -0.134861 19.5613 -0.134861 20.5701 0.448039L29.7804 5.87348Z" fill="#B0B0B0"/>
</svg>
