<svg width="119" height="27" viewBox="0 0 119 27" fill="none" xmlns="http://www.w3.org/2000/svg">
<path d="M41.068 19.186L47.505 8.83199H41.785V6.53899H51.829V6.88499L45.523 17.239H51.602V19.551H41.068V19.187V19.186ZM55.362 6.53899H64.159V8.83199H58.401V11.87H63.008V14.017H58.401V17.256H64.46V19.549H55.361V6.53899H55.362ZM68.172 6.53899H73.005C73.798 6.53899 74.515 6.61799 75.157 6.77599C75.799 6.93399 76.346 7.17599 76.8 7.50399C77.254 7.832 77.599 8.24399 77.838 8.74199C78.09 9.23899 78.216 9.82199 78.216 10.488V10.561C78.216 11.058 78.147 11.495 78.009 11.871C77.871 12.247 77.675 12.575 77.424 12.853C77.1679 13.1359 76.8681 13.376 76.536 13.564C76.1914 13.7601 75.824 13.9129 75.442 14.019L79.01 19.55H75.763L72.535 14.528H71.213V19.55H68.174V6.53899H68.172ZM72.929 12.526C73.698 12.526 74.27 12.368 74.647 12.053C75.038 11.738 75.232 11.271 75.232 10.651V10.58C75.232 9.91199 75.031 9.45099 74.628 9.19599C74.238 8.92899 73.671 8.79599 72.929 8.79599H71.211V12.526H72.929H72.928H72.929ZM82.497 6.53899H85.574V19.55H82.497V6.53899ZM96.412 17.401C96.978 17.401 97.488 17.298 97.941 17.092C98.3971 16.8927 98.8032 16.5945 99.13 16.219C99.444 15.856 99.691 15.407 99.867 14.873C100.05 14.295 100.139 13.694 100.131 13.09V12.944C100.131 12.313 100.043 11.737 99.867 11.215C99.7192 10.7229 99.4752 10.265 99.149 9.86799C98.8222 9.49252 98.4161 9.19433 97.96 8.99499C97.4588 8.78212 96.9185 8.67685 96.374 8.68599C95.782 8.68599 95.254 8.78899 94.788 8.99499C94.334 9.18999 93.945 9.46799 93.617 9.83199C93.29 10.207 93.038 10.662 92.862 11.196C92.699 11.717 92.617 12.306 92.617 12.961V13.107C92.617 13.774 92.711 14.375 92.9 14.909C93.089 15.43 93.353 15.873 93.693 16.238C94.02 16.6132 94.4261 16.9114 94.882 17.111C95.366 17.309 95.886 17.408 96.411 17.402V17.401H96.412ZM96.356 19.749C95.299 19.749 94.342 19.586 93.486 19.258C92.631 18.919 91.907 18.451 91.315 17.856C90.702 17.262 90.226 16.549 89.917 15.764C89.5851 14.9245 89.4187 14.0287 89.427 13.126V12.98C89.427 12.01 89.597 11.118 89.937 10.306C90.272 9.51699 90.774 8.80399 91.409 8.21299C92.039 7.62199 92.783 7.15799 93.599 6.84799C94.442 6.51999 95.367 6.35699 96.374 6.35699C97.394 6.35699 98.325 6.51499 99.168 6.82999C100.023 7.14499 100.76 7.58899 101.376 8.15899C101.984 8.74686 102.466 9.45258 102.792 10.233C103.145 11.034 103.321 11.925 103.321 12.908V13.054C103.321 14.025 103.151 14.922 102.811 15.747C102.499 16.536 102.024 17.254 101.414 17.858C100.791 18.465 100.045 18.942 99.224 19.26C98.368 19.588 97.412 19.751 96.355 19.751L96.356 19.749ZM107.103 6.53799H110.652L115.787 15.109V6.53799H118.506V19.55H115.447L109.822 10.288V19.55H107.103V6.53899V6.53799Z" fill="#B0B0B0"/>
<path fill-rule="evenodd" clip-rule="evenodd" d="M4.665 1H22.159C24.456 1 26.319 2.804 26.319 5.029V21.972C26.319 24.197 24.457 26.001 22.159 26.001H4.665C2.368 26.001 0.505005 24.197 0.505005 21.972V5.029C0.506005 2.804 2.368 1 4.665 1ZM13.404 15.878L11.669 18.288C11.631 18.337 11.669 18.331 11.669 18.331H17.309C17.347 18.3306 17.3838 18.3437 17.413 18.368L19.988 20.564C20.003 20.577 20.016 20.593 20.024 20.611C20.032 20.629 20.037 20.648 20.037 20.668C20.037 20.747 19.968 20.809 19.883 20.809H7.254C7.024 20.809 6.817 20.619 6.817 20.407C6.817 20.407 6.73801 20.056 6.93101 19.761L9.773 15.892L13.404 15.879V15.878ZM13.388 11.068L15.153 8.698H15.152C15.218 8.61 15.152 8.615 15.152 8.615L11.68 8.602H9.318C9.277 8.602 9.237 8.587 9.209 8.56L6.844 6.394C6.748 6.306 6.816 6.156 6.953 6.156H19.595C19.825 6.156 20.033 6.344 20.033 6.553C20.033 6.553 20.068 6.767 19.928 6.968L17.295 10.582L16.927 11.087L13.39 11.068H13.388Z" fill="#B0B0B0"/>
</svg>
