<svg width="55" height="41" viewBox="0 0 55 41" fill="none" xmlns="http://www.w3.org/2000/svg">
<g clip-path="url(#clip0_44_278)">
<path d="M15.357 6.16802L15.809 4.55802L16.211 3.27502C16.387 2.67102 16.462 2.54502 16.537 2.04202C16.587 1.61402 16.637 1.13602 16.336 0.784015C16.11 0.507015 15.708 0.457015 15.407 0.532015C14.98 0.607015 14.83 1.41302 14.654 1.96602C14.252 3.30002 11.642 11.175 11.265 12.559C11.064 13.314 10.11 16.408 10.01 16.861C9.93502 17.037 9.80902 17.465 9.70902 17.49C9.43302 15.829 9.35802 15.251 9.20702 13.691C9.10702 12.433 8.88102 10.672 8.80502 9.48902C8.70502 8.38202 8.78002 6.79702 8.40302 5.69002C8.20202 5.06102 7.67502 4.35702 7.04702 4.23102C5.76702 4.00502 5.34002 6.62102 5.13902 7.42602L2.88002 16.408C2.27802 18.823 1.97602 20.836 1.19802 23.201C1.12302 23.377 0.997017 23.528 0.972017 23.704C0.897017 24.082 1.37402 24.333 1.62502 24.434C2.02702 24.61 2.35302 24.535 2.73002 24.358C3.25702 24.132 3.60902 22.999 3.78402 22.496C4.41202 20.508 4.66302 19.099 5.06402 17.263C5.51602 15.099 5.94302 12.91 6.31902 10.721C6.39402 10.369 6.57002 9.51302 6.67002 9.26202C7.17202 12.759 7.57402 16.282 7.97502 19.779C8.05002 20.483 8.07502 21.213 8.22602 21.893C8.30102 22.17 8.40202 22.421 8.62802 22.597C8.85402 22.798 9.15502 22.874 9.43102 22.823C10.209 22.748 10.812 21.942 11.088 21.238C11.314 20.609 11.465 20.03 11.64 19.376L14.025 10.62L15.356 6.16702L15.357 6.16802ZM17.012 14.848C17.163 14.093 17.163 13.363 16.912 12.735C16.636 12.056 14.527 10.923 14.577 12.332C14.627 13.414 14.05 15.1 13.749 16.131L12.469 19.88C12.193 20.735 12.469 22.094 13.498 22.346C14.151 22.522 14.778 21.692 15.004 21.163C15.456 20.157 15.632 19.503 16.008 18.421C16.334 17.49 16.811 16.056 17.012 14.848ZM16.563 10.621L16.638 10.696C17.266 11.275 17.868 10.57 18.194 9.96601C18.721 8.98501 19.022 8.30502 17.993 7.55102C17.29 7.02302 16.688 7.92802 16.437 8.50702C16.161 9.18602 15.985 10.017 16.562 10.62L16.563 10.621ZM32.954 29.315C32.879 29.34 32.854 29.39 32.854 29.416C32.829 29.592 33.03 29.315 32.954 29.315ZM32.324 30.221C32.475 30.12 32.55 29.995 32.6 29.768C32.449 29.894 32.349 30.045 32.324 30.221Z" fill="#B0B0B0"/>
<path d="M45.46 17.339V17.314C44.33 17.666 43.301 18.345 42.247 19.1C41.896 19.352 40.942 20.031 40.866 19.905C40.791 19.804 40.966 19.276 40.966 19.15L41.343 16.131C41.443 15.049 41.494 13.942 41.418 12.86C41.393 12.407 41.343 11.904 41.242 11.476C41.142 11.124 40.589 10.595 40.238 10.47C39.836 10.319 39.585 10.571 39.46 10.923L39.083 12.382C38.983 12.885 38.932 13.464 38.832 14.143L38.606 15.577C38.506 16.08 38.48 16.055 38.154 16.407L36.673 18.093L35.593 19.401C35.267 19.753 34.689 20.483 34.237 20.634C34.112 20.232 34.237 19.854 34.338 19.452C34.689 18.269 35.166 17.137 35.618 16.005L36.622 13.565C36.898 12.911 37.35 12.03 37.199 11.275C37.099 10.747 36.371 10.017 35.818 10.445C35.241 10.848 34.99 11.804 34.638 12.433L33.584 14.597L33.559 14.622L31.877 16.534L29.944 18.748L28.965 19.754C28.789 19.905 28.212 20.433 27.961 20.282C27.66 20.106 27.735 19.175 27.76 18.949C27.785 18.496 27.86 18.043 27.961 17.615L28.664 14.671L30.22 9.891C30.371 9.438 30.496 8.96 30.747 8.557C30.948 8.18 31.575 8.029 31.952 7.928C32.881 7.651 33.408 7.551 34.387 7.349L36.496 6.972C36.998 6.897 37.375 6.821 37.651 6.695C37.651 6.443 37.576 6.242 37.551 6.141C37.451 6.04 36.949 6.015 36.798 6.015C36.17 5.99 35.794 6.09 35.242 6.116L31.878 6.493C31.778 6.518 31.527 6.594 31.426 6.594C31.351 6.569 31.526 6.141 31.552 6.091C31.652 5.688 31.778 5.21 31.753 4.783C31.678 4.154 31.201 2.971 30.397 3.299C30.246 3.374 30.121 3.5 30.046 3.626C29.946 3.777 29.82 4.079 29.77 4.23L29.368 5.211L28.891 6.394C28.841 6.52 28.766 6.847 28.615 6.922C28.515 7.023 28.113 7.048 27.887 7.098L25.477 7.475C25.377 7.5 24.573 7.601 24.498 7.626C24.674 7.098 24.9 6.242 24.85 5.965C24.8 5.713 24.775 5.562 24.624 5.311C24.348 4.732 23.745 4.481 23.494 4.657C23.143 4.883 22.866 5.412 22.615 5.84L21.937 7.048C21.485 7.878 21.159 8.734 20.807 9.589C19.376 13.112 18.071 16.433 17.167 20.106C16.64 22.194 16.113 24.308 15.836 26.472C15.61 28.46 15.459 30.9 16.288 32.737C17.116 34.473 18.874 34.825 20.254 33.391C20.831 32.762 21.208 31.982 21.509 31.177C22.814 27.68 23.141 23.528 21.961 19.93C21.8881 19.6555 21.7958 19.3865 21.685 19.125C21.61 19.024 21.409 18.421 21.409 18.421C21.409 18.421 22.338 18.22 22.539 18.144C23.468 17.867 24.371 17.59 25.275 17.263C25.25 17.439 25.2 17.615 25.175 17.817C25.024 18.798 24.949 20.006 25.451 20.912C25.828 21.541 26.807 22.044 27.509 22.17C28.287 22.346 28.89 21.843 29.492 21.365C29.668 21.214 30.672 20.006 30.797 19.83C31.073 19.503 31.977 18.169 32.479 17.591C32.253 18.295 32.052 19.025 32.027 19.73C32.002 20.435 32.228 21.29 32.805 21.667C33.382 22.044 34.136 22.17 34.788 21.894C36.269 21.315 37.499 19.529 37.75 19.227C38.127 18.699 38.051 18.749 38.152 18.749C38.152 18.774 37.7 21.341 37.55 21.768C37.45 22.145 37.349 22.573 37.148 22.9C36.922 23.177 36.571 23.403 36.32 23.655C35.994 23.932 35.692 24.234 35.391 24.536C32.931 26.901 31.023 29.694 29.341 32.638C28.613 33.921 28.061 35.255 27.885 36.714C27.81 37.418 27.785 38.173 27.985 38.878C28.613 40.966 30.947 40.765 32.428 39.809C33.708 38.979 34.612 37.721 35.415 36.463C36.294 35.104 36.946 33.62 37.574 32.11C38.101 30.802 38.553 29.317 38.955 27.933C39.532 25.945 39.934 24.486 40.286 22.674C40.361 22.397 40.437 21.944 40.437 21.944C40.437 21.944 40.839 21.642 41.09 21.491L43.073 20.107C43.675 19.654 45.131 18.622 45.508 18.421C45.659 18.144 45.734 17.616 45.458 17.339H45.46ZM21.135 26.12C21.11 26.472 21.06 26.824 21.009 27.152C20.8447 28.2769 20.5929 29.3873 20.256 30.473C20.03 31.253 19.603 32.461 18.951 32.687C18.122 32.058 17.997 29.014 18.323 27.177C18.599 25.592 18.9 24.007 19.327 22.447C19.478 21.894 20.206 19.453 20.381 18.849C20.707 19.503 20.758 20.107 20.883 20.686C21.234 22.498 21.31 24.309 21.134 26.121L21.135 26.12ZM27.285 10.068C27.109 10.596 26.18 13.389 25.904 14.446C25.779 14.848 25.678 15.276 25.553 15.704C25.151 15.88 25.026 15.956 24.248 16.207L22.516 16.735C22.114 16.836 21.361 17.012 20.985 17.062C21.613 15.049 22.315 13.363 23.018 11.401C23.445 10.244 23.52 10.193 24.022 8.885L24.072 8.935C24.423 9.212 24.8 9.136 25.227 9.036L26.658 8.709C27.11 8.608 27.913 8.508 27.913 8.508C27.913 8.508 27.737 9.036 27.637 9.263C27.461 9.565 27.361 9.817 27.286 10.068H27.285ZM35.996 24.309C35.896 24.661 35.544 24.812 35.343 25.039C35.519 24.762 35.694 24.486 35.996 24.309ZM35.067 25.668C34.916 26.046 34.565 26.247 34.364 26.574C34.515 26.222 34.766 25.87 35.067 25.668ZM34.088 26.775C34.088 26.976 34.113 26.976 33.912 27.052C33.887 26.901 33.962 26.851 34.088 26.775ZM36.573 24.863C36.021 26.725 35.669 28.662 35.042 30.449C34.414 32.185 33.711 33.997 32.833 35.632C32.4323 36.3854 31.9526 37.0941 31.402 37.746C31.025 38.199 30.297 39.054 29.62 38.928C29.093 38.827 29.093 38.173 29.068 37.746C28.968 36.262 29.947 34.45 30.599 33.142C30.8 32.739 31.101 32.362 31.327 31.959C31.428 31.682 32.055 31.028 31.98 30.751C31.754 30.977 31.528 31.254 31.327 31.481C31.352 31.129 31.653 30.777 31.829 30.475C32.03 30.098 32.381 29.821 32.607 29.418C32.758 29.141 32.758 28.965 32.883 28.764C32.958 28.663 33.209 28.311 33.285 28.261C33.385 28.236 33.285 28.412 33.36 28.437C33.561 28.336 33.586 27.984 33.686 27.808C33.786 27.607 33.912 27.355 34.063 27.229C34.214 27.078 34.389 27.053 34.515 26.902C34.666 26.751 34.741 26.575 34.892 26.449C35.043 26.323 35.218 26.223 35.344 26.097C35.495 25.921 35.545 25.745 35.67 25.543C35.896 25.166 36.323 24.964 36.574 24.612C36.5992 24.6941 36.5992 24.7819 36.574 24.864L36.573 24.863Z" fill="#B0B0B0"/>
<path d="M34.057 27.805C33.957 27.73 33.781 28.208 33.731 28.258C33.58 28.434 33.38 28.409 33.53 28.711C33.605 28.585 34.258 27.931 34.057 27.805ZM54.993 15.905C55.018 15.804 54.968 15.804 54.968 15.754C54.868 15.427 54.642 15.251 54.34 15.301C52.758 15.553 51.177 15.93 49.721 16.584C49.47 16.685 49.495 16.685 49.219 16.509L48.491 16.056L47.487 15.528C47.211 15.352 47.462 15.151 47.638 15C48.316 14.346 49.069 13.767 49.872 13.239C50.249 13.013 50.625 12.761 51.027 12.585C51.379 12.409 51.78 12.208 52.182 12.208C52.3936 12.1981 52.6004 12.141 52.7871 12.0408C52.9738 11.9406 53.1357 11.7999 53.261 11.629C53.361 11.428 53.386 11.226 53.361 11C53.286 10.623 53.135 10.245 52.884 9.94302C52.708 9.74202 52.482 9.49002 52.231 9.41502C51.905 9.28902 51.553 9.44002 51.252 9.51602C50.901 9.61702 50.549 9.76802 50.198 9.91902C49.093 10.422 47.989 10.976 47.01 11.731C46.006 12.486 44.901 13.668 45.152 15.052C45.1814 15.2324 45.25 15.4041 45.353 15.555C45.805 16.209 47.888 17.467 47.888 17.467L47.235 17.92C46.432 18.499 45.503 19.103 45.126 20.034C44.8 20.839 44.724 21.971 45.226 22.701C45.728 23.405 46.607 23.531 47.41 23.431C48.289 23.305 49.167 22.852 49.845 22.248C50.598 21.619 51 20.789 51.05 19.807C51.05 19.178 50.95 18.624 50.548 18.096C50.473 18.02 50.448 17.995 50.372 17.895C50.6956 17.6605 51.0307 17.4423 51.376 17.241C52.2289 16.7784 53.1539 16.4636 54.112 16.31C54.313 16.285 54.489 16.285 54.639 16.235C54.714 16.21 54.815 16.134 54.714 16.034C54.689 16.009 54.614 15.959 54.639 15.933C54.714 15.883 54.89 15.958 54.991 15.908L54.993 15.905ZM48.592 21.365C48.065 21.717 46.91 22.321 46.283 21.944C46.132 21.843 46.057 21.717 46.082 21.541C46.132 21.164 46.308 20.862 46.534 20.56C47.463 19.377 49.195 18.472 49.295 18.572C49.37 18.622 49.822 18.974 49.822 19.352V19.377C49.822 20.207 49.22 20.962 48.592 21.365ZM43.549 9.18702L43.75 9.16202C43.825 9.23702 44.051 9.51402 43.825 10.017C43.649 10.445 43.448 10.671 43.172 11.174C43.749 11.325 44.402 10.822 44.804 10.47C45.582 9.76602 46.109 8.53302 45.632 7.50102C45.431 7.07302 45.08 6.74602 44.603 6.67102C44.076 6.59602 43.373 6.99802 43.022 7.40102C42.545 7.95502 42.696 9.16202 43.549 9.18702Z" fill="#B0B0B0"/>
</g>
<defs>
<clipPath id="clip0_44_278">
<rect width="55" height="40" fill="white" transform="translate(0 0.5)"/>
</clipPath>
</defs>
</svg>
