<svg width="102" height="35" viewBox="0 0 102 35" fill="none" xmlns="http://www.w3.org/2000/svg">
<g clip-path="url(#clip0_44_272)">
<path d="M25.815 13.988C25.27 14.533 24.599 14.874 23.895 15.012C24.3776 16.3164 24.4769 17.7316 24.1814 19.0907C23.8858 20.4497 23.2077 21.6958 22.227 22.682C20.838 24.071 18.969 24.806 17.077 24.806C16.2141 24.8057 15.3583 24.6509 14.55 24.349C14.409 25.0806 14.0515 25.7529 13.524 26.279C12.065 27.738 9.69998 27.738 8.24198 26.279C6.78398 24.82 6.78298 22.455 8.24198 20.997C8.7652 20.4727 9.43305 20.1165 10.16 19.974C9.66815 18.6661 9.56257 17.2444 9.85581 15.8782C10.149 14.512 10.8287 13.2589 11.814 12.268C12.8039 11.2836 14.0557 10.6042 15.4205 10.3104C16.7853 10.0167 18.2057 10.121 19.513 10.611C19.6571 9.88861 20.0124 9.22525 20.534 8.70502C21.993 7.24602 24.358 7.24602 25.816 8.70502C27.274 10.164 27.275 12.529 25.816 13.987L25.815 13.988ZM17.02 0.994019C12.6426 0.995079 8.44489 2.73444 5.34964 5.82969C2.2544 8.92493 0.515037 13.1227 0.513977 17.5C0.515037 21.8774 2.2544 26.0751 5.34964 29.1704C8.44489 32.2656 12.6426 34.005 17.02 34.006C21.3973 34.005 25.5951 32.2656 28.6903 29.1704C31.7856 26.0751 33.5249 21.8774 33.526 17.5C33.5249 13.1227 31.7856 8.92493 28.6903 5.82969C25.5951 2.73444 21.3973 0.995079 17.02 0.994019ZM18.97 19.425C17.903 20.492 16.173 20.492 15.105 19.425C14.037 18.358 14.038 16.628 15.105 15.56C16.172 14.492 17.902 14.493 18.97 15.56C20.038 16.627 20.037 18.357 18.97 19.425ZM21.408 9.58102C20.846 10.143 20.589 10.947 20.719 11.732C20.767 11.9918 20.7335 12.2601 20.623 12.5C20.5529 12.6514 20.4537 12.7876 20.331 12.9007C20.2084 13.0137 20.0646 13.1015 19.908 13.159C19.602 13.271 19.254 13.267 18.935 13.12C18.0575 12.7241 17.0803 12.6048 16.1333 12.7778C15.1864 12.9509 14.3146 13.4082 13.6339 14.0889C12.9532 14.7696 12.4959 15.6414 12.3228 16.5884C12.1497 17.5353 12.2691 18.5126 12.665 19.39C12.815 19.713 12.816 20.067 12.699 20.376C12.585 20.676 12.359 20.933 12.045 21.078C11.878 21.1555 11.6961 21.1958 11.512 21.196C11.4276 21.1951 11.3435 21.1857 11.261 21.168C10.444 21.056 9.68098 21.31 9.12698 21.864C8.89583 22.092 8.71229 22.3635 8.58701 22.663C8.46173 22.9625 8.39722 23.2839 8.39722 23.6085C8.39722 23.9331 8.46173 24.2545 8.58701 24.554C8.71229 24.8535 8.89583 25.1251 9.12698 25.353C9.59002 25.815 10.2174 26.0744 10.8715 26.0744C11.5256 26.0744 12.1529 25.815 12.616 25.353C13.178 24.791 13.435 23.987 13.305 23.202C13.2986 23.1603 13.2986 23.1178 13.305 23.076C13.29 22.868 13.326 22.654 13.419 22.452C13.566 22.135 13.827 21.907 14.13 21.794C14.433 21.681 14.787 21.684 15.107 21.832C15.9844 22.2279 16.9617 22.3473 17.9086 22.1742C18.8556 22.0011 19.7274 21.5438 20.4081 20.8631C21.0888 20.1824 21.5461 19.3106 21.7192 18.3637C21.8922 17.4167 21.7729 16.4395 21.377 15.562C21.231 15.246 21.226 14.901 21.335 14.598C21.446 14.289 21.675 14.023 21.997 13.874C22.223 13.769 22.463 13.738 22.693 13.768C22.729 13.764 22.765 13.763 22.802 13.768C23.58 13.879 24.343 13.625 24.897 13.07C25.3589 12.607 25.6184 11.9796 25.6184 11.3255C25.6184 10.6714 25.3589 10.0441 24.897 9.58102C24.434 9.11936 23.8068 8.86012 23.153 8.86012C22.4991 8.86012 21.872 9.11936 21.409 9.58102H21.408ZM65.447 22.514C65.5161 22.5074 65.5855 22.5034 65.655 22.502V24.927C65.116 25.035 64.693 25.089 64.385 25.089C63.353 25.089 62.549 24.827 61.971 24.304C61.393 23.781 61.105 22.964 61.105 21.856V8.25002H64.015V21.37C64.015 21.755 64.092 22.044 64.246 22.236C64.4 22.428 64.708 22.525 65.17 22.525C65.2624 22.5249 65.3549 22.5209 65.447 22.513V22.514ZM67.047 24.951H69.98V12.939H67.047V24.95V24.951ZM79.595 12.94H82.482V24.95H80.08L79.872 23.379C79.579 23.964 79.125 24.422 78.509 24.753C77.893 25.084 77.2 25.25 76.43 25.25C75.152 25.25 74.139 24.857 73.393 24.072C72.647 23.287 72.273 22.247 72.273 20.954V12.939H75.16V20.307C75.16 21.831 75.853 22.594 77.239 22.594C77.824 22.594 78.317 22.394 78.717 21.993C79.302 21.454 79.595 20.553 79.595 19.291V12.939V12.94ZM101.96 16.844V24.951H99.096V17.49C99.096 16.705 98.961 16.119 98.692 15.734C98.423 15.349 97.941 15.157 97.248 15.157C96.494 15.157 95.912 15.484 95.504 16.139C95.096 16.794 94.892 17.544 94.892 18.391V24.951H92.028V17.49C92.028 16.705 91.893 16.119 91.624 15.734C91.355 15.349 90.873 15.157 90.18 15.157C89.426 15.157 88.84 15.484 88.425 16.139C88.01 16.794 87.801 17.544 87.801 18.391V24.951H84.937V12.939H87.339L87.57 14.533C88.34 13.27 89.48 12.639 90.989 12.639C92.637 12.639 93.784 13.293 94.431 14.602C95.186 13.293 96.394 12.639 98.057 12.639C99.304 12.639 100.267 13.02 100.945 13.782C101.623 14.544 101.961 15.564 101.961 16.842L101.96 16.844ZM66.955 11.277H70.05V8.29702H66.955V11.277ZM46.101 13.84C46.825 14.641 47.187 15.672 47.187 16.935V24.95H44.3V17.535C44.3 16.796 44.15 16.238 43.85 15.86C43.55 15.482 43.038 15.294 42.314 15.294C41.9432 15.2813 41.5761 15.3703 41.2524 15.5516C40.9287 15.7328 40.6609 15.9993 40.478 16.322C40.055 17.007 39.843 17.773 39.843 18.62V24.949H36.956V8.27302H39.843V14.209C40.182 13.716 40.651 13.331 41.252 13.054C41.853 12.777 42.476 12.638 43.123 12.638C44.386 12.638 45.379 13.038 46.103 13.839L46.101 13.84ZM51.535 17.744C51.55 17.005 51.758 16.381 52.159 15.873C52.621 15.257 53.291 14.949 54.169 14.949C54.954 14.949 55.563 15.18 55.994 15.642C56.471 16.166 56.718 16.866 56.733 17.744H51.536H51.535ZM54.191 12.639C52.62 12.639 51.342 13.147 50.357 14.164C49.202 15.35 48.625 16.951 48.625 18.968C48.625 20.985 49.241 22.587 50.473 23.772C51.505 24.757 52.767 25.25 54.261 25.25C56.001 25.25 57.349 24.688 58.303 23.564C58.904 22.84 59.242 22.101 59.319 21.347H56.547C56.439 21.747 56.247 22.086 55.97 22.363C55.585 22.748 55 22.94 54.215 22.94C53.553 22.94 52.96 22.694 52.436 22.201C51.82 21.616 51.527 20.831 51.558 19.845H59.596C59.5986 19.5756 59.6063 19.3062 59.619 19.037C59.665 17.374 59.319 15.98 58.58 14.856C57.594 13.378 56.132 12.639 54.191 12.639Z" fill="#B0B0B0"/>
</g>
<defs>
<clipPath id="clip0_44_272">
<rect width="102" height="34" fill="white" transform="translate(0 0.5)"/>
</clipPath>
</defs>
</svg>
