<svg width="13" height="14" viewBox="0 0 13 14" fill="none" xmlns="http://www.w3.org/2000/svg">
<path d="M6.60588 3.15625C5.81519 3.15625 5.05688 3.50794 4.49778 4.13395C3.93867 4.75996 3.62457 5.60901 3.62457 6.49432C3.62457 7.37963 3.93867 8.22868 4.49778 8.85469C5.05688 9.4807 5.81519 9.83239 6.60588 9.83239C7.39657 9.83239 8.15487 9.4807 8.71398 8.85469C9.27308 8.22868 9.58718 7.37963 9.58718 6.49432C9.58718 5.60901 9.27308 4.75996 8.71398 4.13395C8.15487 3.50794 7.39657 3.15625 6.60588 3.15625ZM6.60588 8.66219C6.0922 8.66219 5.59956 8.43372 5.23634 8.02703C4.87312 7.62034 4.66906 7.06875 4.66906 6.4936C4.66906 5.91845 4.87312 5.36686 5.23634 4.96017C5.59956 4.55348 6.0922 4.32501 6.60588 4.32501C7.11955 4.32501 7.61219 4.55348 7.97541 4.96017C8.33864 5.36686 8.54269 5.91845 8.54269 6.4936C8.54269 7.06875 8.33864 7.62034 7.97541 8.02703C7.61219 8.43372 7.11955 8.66219 6.60588 8.66219Z" fill="black"/>
<path d="M9.70529 3.81179C10.0891 3.81179 10.4003 3.46337 10.4003 3.03358C10.4003 2.60379 10.0891 2.25537 9.70529 2.25537C9.32143 2.25537 9.01025 2.60379 9.01025 3.03358C9.01025 3.46337 9.32143 3.81179 9.70529 3.81179Z" fill="black"/>
<path d="M12.1081 2.24223C11.9589 1.81066 11.7308 1.41874 11.4385 1.09156C11.1461 0.764374 10.796 0.509136 10.4105 0.342181C9.95943 0.152579 9.48286 0.0500574 9.00112 0.0389826C8.38023 0.00866275 8.18358 0 6.60911 0C5.03465 0 4.83284 -7.26109e-08 4.21711 0.0389826C3.73573 0.0494912 3.2595 0.152033 2.80898 0.342181C2.42339 0.508941 2.07318 0.764111 1.78083 1.09132C1.48848 1.41853 1.26045 1.81055 1.11137 2.24223C0.941997 2.74728 0.850643 3.28092 0.84122 3.8203C0.813496 4.51477 0.805115 4.73495 0.805115 6.49856C0.805115 8.26144 0.805115 8.48595 0.84122 9.17681C0.850892 9.71679 0.941801 10.2496 1.11137 10.7556C1.26087 11.1871 1.48912 11.579 1.78154 11.9062C2.07396 12.2333 2.42411 12.4886 2.80963 12.6557C3.2593 12.8529 3.73572 12.9627 4.2184 12.9805C4.83929 13.0108 5.03594 13.0202 6.6104 13.0202C8.18487 13.0202 8.38668 13.0202 9.00241 12.9805C9.4841 12.9695 9.96065 12.8673 10.4118 12.678C10.7972 12.5107 11.1472 12.2552 11.4395 11.928C11.7318 11.6007 11.96 11.2088 12.1094 10.7773C12.279 10.2719 12.3699 9.73917 12.3796 9.19919C12.4073 8.50472 12.4157 8.28454 12.4157 6.52094C12.4157 4.75733 12.4157 4.53354 12.3796 3.84268C12.3721 3.29568 12.2803 2.75423 12.1081 2.24223ZM11.3228 9.12339C11.3187 9.53942 11.2509 9.95158 11.1223 10.342C11.0255 10.6227 10.8773 10.8776 10.6872 11.0903C10.4971 11.3031 10.2693 11.4689 10.0185 11.5771C9.67374 11.7204 9.30954 11.7963 8.9418 11.8016C8.3293 11.8334 8.1565 11.8413 6.5859 11.8413C5.01401 11.8413 4.85347 11.8413 4.22936 11.8016C3.86181 11.7966 3.49778 11.7207 3.15328 11.5771C2.90163 11.4696 2.67294 11.304 2.48203 11.0913C2.29111 10.8785 2.14221 10.6232 2.04496 10.342C1.91823 9.95578 1.85045 9.54847 1.84444 9.1371C1.81672 8.4513 1.81027 8.25783 1.81027 6.49928C1.81027 4.74 1.81027 4.56025 1.84444 3.86073C1.84861 3.44493 1.91643 3.03301 2.04496 2.64288C2.24161 2.0733 2.64457 1.625 3.15328 1.40699C3.49795 1.26415 3.86187 1.18822 4.22936 1.18247C4.84251 1.15143 5.01466 1.14277 6.5859 1.14277C8.15715 1.14277 8.31834 1.14277 8.9418 1.18247C9.30957 1.18743 9.67382 1.26338 10.0185 1.40699C10.2693 1.51547 10.497 1.68145 10.6871 1.89429C10.8772 2.10713 11.0254 2.36211 11.1223 2.64288C11.2491 3.02906 11.3168 3.43637 11.3228 3.84773C11.3506 4.53426 11.3577 4.72701 11.3577 6.48628C11.3577 8.24483 11.3577 8.43397 11.3299 9.12411H11.3228V9.12339Z" fill="black"/>
</svg>
