<svg width="64" height="30" viewBox="0 0 64 30" fill="none" xmlns="http://www.w3.org/2000/svg">
<path d="M2.142 25.252L2.89 22.158C5.04333 22.838 6.75467 23.178 8.024 23.178C9.29333 23.178 10.1547 23.0533 10.608 22.804C11.0613 22.5773 11.288 22.1693 11.288 21.58C11.288 20.9907 11.084 20.5713 10.676 20.322C10.268 20.0727 9.49733 19.812 8.364 19.54C6.12 18.996 4.556 18.3953 3.672 17.738C2.788 17.058 2.346 15.9587 2.346 14.44C2.346 11.1987 4.43133 9.578 8.602 9.578C10.3927 9.578 12.4667 9.87267 14.824 10.462L14.178 13.692C11.934 13.0573 10.2 12.74 8.976 12.74C7.752 12.74 6.92467 12.8533 6.494 13.08C6.086 13.284 5.882 13.6467 5.882 14.168C5.882 14.6893 6.086 15.0747 6.494 15.324C6.92467 15.5507 8.01267 15.902 9.758 16.378C11.5033 16.854 12.784 17.4093 13.6 18.044C14.416 18.656 14.824 19.71 14.824 21.206C14.824 24.6287 12.716 26.34 8.5 26.34C6.528 26.34 4.40867 25.9773 2.142 25.252ZM17.646 12.978V9.85H20.4V5.974L23.902 5.634V9.85H30.26V12.978H23.902V19.778C23.902 21.0247 24.0267 21.9087 24.276 22.43C24.5253 22.9287 25.0353 23.178 25.806 23.178C27.1433 23.178 28.7073 22.9627 30.498 22.532L31.076 25.558C29.104 26.0793 27.3473 26.34 25.806 26.34C23.63 26.34 22.1793 25.8527 21.454 24.878C20.7513 23.9033 20.4 22.2033 20.4 19.778V12.978H17.646ZM33.422 25.252L34.17 22.158C36.3233 22.838 38.0347 23.178 39.304 23.178C40.5733 23.178 41.4347 23.0533 41.888 22.804C42.3413 22.5773 42.568 22.1693 42.568 21.58C42.568 20.9907 42.364 20.5713 41.956 20.322C41.548 20.0727 40.7773 19.812 39.644 19.54C37.4 18.996 35.836 18.3953 34.952 17.738C34.068 17.058 33.626 15.9587 33.626 14.44C33.626 11.1987 35.7113 9.578 39.882 9.578C41.6727 9.578 43.7467 9.87267 46.104 10.462L45.458 13.692C43.214 13.0573 41.48 12.74 40.256 12.74C39.032 12.74 38.2047 12.8533 37.774 13.08C37.366 13.284 37.162 13.6467 37.162 14.168C37.162 14.6893 37.366 15.0747 37.774 15.324C38.2047 15.5507 39.2927 15.902 41.038 16.378C42.7833 16.854 44.064 17.4093 44.88 18.044C45.696 18.656 46.104 19.71 46.104 21.206C46.104 24.6287 43.996 26.34 39.78 26.34C37.808 26.34 35.6887 25.9773 33.422 25.252ZM52.87 26V21.07H57.8V26H52.87Z" fill="#1A1A1A"/>
</svg>
