<svg width="14" height="10" viewBox="0 0 14 10" fill="none" xmlns="http://www.w3.org/2000/svg">
<path d="M12.8293 1.69943C12.7577 1.40537 12.6178 1.1372 12.4235 0.921603C12.2292 0.706009 11.9873 0.550511 11.7219 0.470587C10.7377 0.17138 6.80044 0.166509 6.80044 0.166509C6.80044 0.166509 2.86375 0.161638 1.87895 0.447625C1.61369 0.531227 1.3723 0.688923 1.17794 0.905576C0.983589 1.12223 0.842798 1.39056 0.769089 1.68481C0.509534 2.77449 0.50702 5.03455 0.50702 5.03455C0.50702 5.03455 0.504506 7.30574 0.762175 8.38428C0.906722 8.98061 1.33093 9.45168 1.87015 9.61242C2.86438 9.91163 6.79101 9.9165 6.79101 9.9165C6.79101 9.9165 10.7283 9.92137 11.7125 9.63608C11.978 9.5563 12.2201 9.40116 12.4149 9.186C12.6097 8.97085 12.7503 8.70313 12.823 8.40933C13.0832 7.32035 13.0851 5.06099 13.0851 5.06099C13.0851 5.06099 13.0976 2.7891 12.8293 1.69943ZM5.541 7.1283L5.54414 2.95331L8.81654 5.04429L5.541 7.1283Z" fill="black"/>
</svg>
