<svg width="113" height="32" viewBox="0 0 113 32" fill="none" xmlns="http://www.w3.org/2000/svg">
<path d="M2.142 27.252L2.89 24.158C5.04333 24.838 6.75467 25.178 8.024 25.178C9.29333 25.178 10.1547 25.0533 10.608 24.804C11.0613 24.5773 11.288 24.1693 11.288 23.58C11.288 22.9907 11.084 22.5713 10.676 22.322C10.268 22.0727 9.49733 21.812 8.364 21.54C6.12 20.996 4.556 20.3953 3.672 19.738C2.788 19.058 2.346 17.9587 2.346 16.44C2.346 13.1987 4.43133 11.578 8.602 11.578C10.3927 11.578 12.4667 11.8727 14.824 12.462L14.178 15.692C11.934 15.0573 10.2 14.74 8.976 14.74C7.752 14.74 6.92467 14.8533 6.494 15.08C6.086 15.284 5.882 15.6467 5.882 16.168C5.882 16.6893 6.086 17.0747 6.494 17.324C6.92467 17.5507 8.01267 17.902 9.758 18.378C11.5033 18.854 12.784 19.4093 13.6 20.044C14.416 20.656 14.824 21.71 14.824 23.206C14.824 26.6287 12.716 28.34 8.5 28.34C6.528 28.34 4.40867 27.9773 2.142 27.252ZM17.646 14.978V11.85H20.4V7.974L23.902 7.634V11.85H30.26V14.978H23.902V21.778C23.902 23.0247 24.0267 23.9087 24.276 24.43C24.5253 24.9287 25.0353 25.178 25.806 25.178C27.1433 25.178 28.7073 24.9627 30.498 24.532L31.076 27.558C29.104 28.0793 27.3473 28.34 25.806 28.34C23.63 28.34 22.1793 27.8527 21.454 26.878C20.7513 25.9033 20.4 24.2033 20.4 21.778V14.978H17.646ZM33.422 27.252L34.17 24.158C36.3233 24.838 38.0347 25.178 39.304 25.178C40.5733 25.178 41.4347 25.0533 41.888 24.804C42.3413 24.5773 42.568 24.1693 42.568 23.58C42.568 22.9907 42.364 22.5713 41.956 22.322C41.548 22.0727 40.7773 21.812 39.644 21.54C37.4 20.996 35.836 20.3953 34.952 19.738C34.068 19.058 33.626 17.9587 33.626 16.44C33.626 13.1987 35.7113 11.578 39.882 11.578C41.6727 11.578 43.7467 11.8727 46.104 12.462L45.458 15.692C43.214 15.0573 41.48 14.74 40.256 14.74C39.032 14.74 38.2047 14.8533 37.774 15.08C37.366 15.284 37.162 15.6467 37.162 16.168C37.162 16.6893 37.366 17.0747 37.774 17.324C38.2047 17.5507 39.2927 17.902 41.038 18.378C42.7833 18.854 44.064 19.4093 44.88 20.044C45.696 20.656 46.104 21.71 46.104 23.206C46.104 26.6287 43.996 28.34 39.78 28.34C37.808 28.34 35.6887 27.9773 33.422 27.252ZM52.87 28V23.07H57.8V28H52.87Z" fill="#1A1A1A"/>
<path d="M51.0684 12V3.27273H53.4206V6.59659H53.4547C53.54 6.375 53.665 6.17187 53.8297 5.98722C53.9945 5.79972 54.199 5.65057 54.4434 5.53977C54.6877 5.42614 54.9718 5.36932 55.2956 5.36932C55.7275 5.36932 56.138 5.48438 56.5272 5.71449C56.9192 5.9446 57.2374 6.30682 57.4817 6.80114C57.7289 7.29545 57.8525 7.9375 57.8525 8.72727C57.8525 9.48295 57.7346 10.1094 57.4988 10.6065C57.2658 11.1037 56.9533 11.4744 56.5613 11.7188C56.1721 11.9631 55.7445 12.0852 55.2786 12.0852C54.9718 12.0852 54.6976 12.0355 54.4561 11.9361C54.2175 11.8338 54.013 11.696 53.8425 11.5227C53.6749 11.3466 53.5456 11.1477 53.4547 10.9261H53.4036V12H51.0684ZM53.3695 8.72727C53.3695 9.04545 53.4107 9.32102 53.4931 9.55398C53.5783 9.78409 53.6976 9.96307 53.851 10.0909C54.0073 10.2159 54.1934 10.2784 54.4093 10.2784C54.6252 10.2784 54.8084 10.2173 54.959 10.0952C55.1124 9.97017 55.2289 9.79261 55.3084 9.5625C55.3908 9.32955 55.432 9.05114 55.432 8.72727C55.432 8.40341 55.3908 8.12642 55.3084 7.89631C55.2289 7.66335 55.1124 7.4858 54.959 7.36364C54.8084 7.23864 54.6252 7.17614 54.4093 7.17614C54.1934 7.17614 54.0073 7.23864 53.851 7.36364C53.6976 7.4858 53.5783 7.66335 53.4931 7.89631C53.4107 8.12642 53.3695 8.40341 53.3695 8.72727ZM61.9732 12.1193C61.2743 12.1193 60.6721 11.9858 60.1664 11.7188C59.6635 11.4489 59.2757 11.0625 59.003 10.5597C58.7331 10.054 58.5982 9.44886 58.5982 8.74432C58.5982 8.06818 58.7346 7.47727 59.0073 6.97159C59.28 6.46591 59.665 6.07244 60.1621 5.79119C60.6593 5.50994 61.2459 5.36932 61.9221 5.36932C62.4164 5.36932 62.8638 5.44602 63.2644 5.59943C63.665 5.75284 64.0073 5.97585 64.2914 6.26847C64.5755 6.55824 64.7942 6.91051 64.9476 7.32528C65.101 7.74006 65.1777 8.20739 65.1777 8.72727V9.27273H59.3311V7.97727H63.013C63.0101 7.78977 62.9618 7.625 62.8681 7.48295C62.7772 7.33807 62.6536 7.22585 62.4973 7.14631C62.3439 7.06392 62.1692 7.02273 61.9732 7.02273C61.7828 7.02273 61.6081 7.06392 61.449 7.14631C61.29 7.22585 61.1621 7.33665 61.0655 7.47869C60.9718 7.62074 60.9221 7.78693 60.9164 7.97727V9.375C60.9164 9.58523 60.9604 9.77273 61.0485 9.9375C61.1365 10.1023 61.263 10.2315 61.4277 10.3253C61.5925 10.419 61.7914 10.4659 62.0243 10.4659C62.1863 10.4659 62.334 10.4432 62.4675 10.3977C62.6039 10.3523 62.7203 10.2869 62.8169 10.2017C62.9135 10.1136 62.9846 10.0085 63.03 9.88636H65.1777C65.1039 10.3409 64.9292 10.7358 64.6536 11.071C64.378 11.4034 64.013 11.6619 63.5584 11.8466C63.1067 12.0284 62.5783 12.1193 61.9732 12.1193ZM70.041 5.45455V7.15909H65.7285V5.45455H70.041ZM66.5637 3.88636H68.916V9.89489C68.916 9.9858 68.9316 10.0625 68.9629 10.125C68.9941 10.1847 69.0424 10.2301 69.1078 10.2614C69.1731 10.2898 69.2569 10.304 69.3592 10.304C69.4302 10.304 69.5126 10.2955 69.6064 10.2784C69.7029 10.2614 69.774 10.2472 69.8194 10.2358L70.1603 11.8892C70.0552 11.9205 69.9047 11.9588 69.7086 12.0043C69.5154 12.0497 69.2853 12.0795 69.0183 12.0938C68.4785 12.1222 68.0254 12.0668 67.6589 11.9276C67.2924 11.7855 67.0169 11.5625 66.8322 11.2585C66.6475 10.9545 66.5581 10.5739 66.5637 10.1165V3.88636ZM72.8248 12.1023C72.4071 12.1023 72.0378 12.0341 71.7168 11.8977C71.3986 11.7585 71.1486 11.5483 70.9668 11.267C70.785 10.9858 70.6941 10.6278 70.6941 10.1932C70.6941 9.83523 70.7551 9.52983 70.8773 9.27699C70.9995 9.02131 71.1699 8.8125 71.3887 8.65057C71.6074 8.48864 71.8617 8.36506 72.1515 8.27983C72.4441 8.1946 72.7594 8.1392 73.0975 8.11364C73.464 8.08523 73.758 8.05114 73.9796 8.01136C74.204 7.96875 74.3659 7.91051 74.4654 7.83665C74.5648 7.75994 74.6145 7.65909 74.6145 7.53409V7.51705C74.6145 7.34659 74.5492 7.21591 74.4185 7.125C74.2878 7.03409 74.1202 6.98864 73.9157 6.98864C73.6912 6.98864 73.508 7.03835 73.3659 7.13778C73.2267 7.23437 73.1429 7.38352 73.1145 7.58523H70.9498C70.9782 7.1875 71.1046 6.82102 71.329 6.4858C71.5563 6.14773 71.8873 5.87784 72.3219 5.67614C72.7566 5.47159 73.2992 5.36932 73.9498 5.36932C74.4185 5.36932 74.839 5.42472 75.2111 5.53551C75.5833 5.64347 75.9 5.79545 76.1614 5.99148C76.4228 6.18466 76.6216 6.41193 76.758 6.6733C76.8972 6.93182 76.9668 7.21307 76.9668 7.51705V12H74.7679V11.0795H74.7168C74.5861 11.3239 74.427 11.5213 74.2395 11.6719C74.0549 11.8224 73.8432 11.9318 73.6046 12C73.3688 12.0682 73.1088 12.1023 72.8248 12.1023ZM73.5918 10.6193C73.7708 10.6193 73.9384 10.5824 74.0946 10.5085C74.2537 10.4347 74.383 10.3281 74.4824 10.1889C74.5819 10.0497 74.6316 9.88068 74.6316 9.68182V9.13636C74.5691 9.16193 74.5023 9.18608 74.4313 9.20881C74.3631 9.23153 74.2892 9.25284 74.2097 9.27273C74.133 9.29261 74.0506 9.31108 73.9625 9.32812C73.8773 9.34517 73.7878 9.3608 73.6941 9.375C73.5123 9.40341 73.3631 9.45028 73.2466 9.51562C73.133 9.57812 73.0478 9.65625 72.9909 9.75C72.937 9.84091 72.91 9.94318 72.91 10.0568C72.91 10.2386 72.9739 10.3778 73.1017 10.4744C73.2296 10.571 73.3929 10.6193 73.5918 10.6193Z" fill="#FCA83B"/>
</svg>
